<svg width="16" height="16" viewBox="0 0 16 16" fill="none" xmlns="http://www.w3.org/2000/svg">
<path d="M5.49751 8.93738H3.85801C3.79586 8.93738 3.73626 8.91269 3.69232 8.86875C3.64838 8.82481 3.62369 8.76521 3.62369 8.70306V8.23444C3.62369 8.20367 3.62976 8.1732 3.64153 8.14477C3.65331 8.11635 3.67056 8.09052 3.69232 8.06876C3.71408 8.047 3.73991 8.02974 3.76834 8.01797C3.79677 8.00619 3.82724 8.00013 3.85801 8.00013H5.49751V6.12496H3.85801C3.79586 6.12496 3.73626 6.10027 3.69232 6.05633C3.64838 6.01239 3.62369 5.95279 3.62369 5.89065V5.42203C3.62352 5.39114 3.62944 5.36053 3.64114 5.33194C3.65283 5.30336 3.67006 5.27737 3.69184 5.25546C3.71362 5.23356 3.73951 5.21618 3.76802 5.20432C3.79654 5.19246 3.82712 5.18636 3.85801 5.18636H5.49751V3.31254H3.85801C3.79633 3.31255 3.73714 3.28824 3.69328 3.24488C3.64941 3.20152 3.62441 3.14262 3.62369 3.08095V2.61233C3.62369 2.55018 3.64838 2.49059 3.69232 2.44664C3.73626 2.4027 3.79586 2.37802 3.85801 2.37802H5.49751V1.43738C5.49733 1.18897 5.39862 0.95079 5.22303 0.775081C5.04745 0.599372 4.80934 0.500489 4.56094 0.50013L1.74852 0.50013C1.50001 0.50031 1.26172 0.599113 1.08599 0.774841C0.910262 0.95057 0.811459 1.18886 0.811279 1.43738V14.5629C0.81675 14.6406 0.832274 14.7173 0.857462 14.7911L5.49751 10.1497V8.93738ZM14.87 10.8125H13.9327V12.4534C13.9327 12.5155 13.908 12.5751 13.8641 12.6191C13.8201 12.663 13.7605 12.6877 13.6984 12.6877H13.2298C13.1676 12.6877 13.108 12.663 13.0641 12.6191C13.0202 12.5751 12.9955 12.5155 12.9955 12.4534V10.8125H11.1237V12.4534C11.1237 12.5155 11.099 12.5751 11.0551 12.6191C11.0111 12.663 10.9515 12.6877 10.8894 12.6877H10.4208C10.3898 12.6881 10.359 12.6823 10.3303 12.6707C10.3015 12.659 10.2754 12.6418 10.2533 12.6201C10.2313 12.5983 10.2138 12.5723 10.2018 12.5437C10.1899 12.5151 10.1837 12.4844 10.1837 12.4534V10.8125H8.31128V12.4534C8.31128 12.5155 8.28659 12.5751 8.24265 12.6191C8.19871 12.663 8.13911 12.6877 8.07697 12.6877H7.60835C7.57758 12.6877 7.54711 12.6817 7.51868 12.6699C7.49025 12.6581 7.46442 12.6408 7.44266 12.6191C7.4209 12.5973 7.40365 12.5715 7.39187 12.5431C7.38009 12.5146 7.37403 12.4842 7.37403 12.4534V10.8125H6.16173L1.52033 15.4539C1.59408 15.4791 1.67079 15.4946 1.74852 15.5001H14.874C15.1226 15.5 15.3608 15.4011 15.5366 15.2254C15.7123 15.0497 15.8111 14.8114 15.8113 14.5629V11.7498C15.8111 11.5013 15.7123 11.263 15.5366 11.0873C15.3608 10.9115 15.1226 10.8127 14.874 10.8125H14.87Z" fill="#EEA820"/>
</svg>
