<svg width="16" height="15" viewBox="0 0 16 15" fill="none" xmlns="http://www.w3.org/2000/svg">
<path d="M15.1631 4.40753C15.1271 3.60889 14.9981 3.06245 14.815 2.58507C14.623 2.09267 14.3679 1.67234 13.9509 1.25801C13.5338 0.843675 13.1167 0.582466 12.6246 0.393315C12.1475 0.207166 11.6014 0.0810649 10.8032 0.045036C10.0021 0.0090072 9.74702 0 7.71261 0C5.6752 0 5.42015 0.0090072 4.62199 0.045036C3.82383 0.0810649 3.27772 0.210168 2.80063 0.393315C2.30553 0.585468 1.88545 0.840672 1.47136 1.25801C1.05728 1.67534 0.796228 2.09267 0.60719 2.58507C0.424153 3.06245 0.295128 3.60889 0.25912 4.40753C0.223113 5.20917 0.214111 5.46437 0.214111 7.5C0.214111 9.53863 0.223113 9.79383 0.25912 10.5925C0.295128 11.3911 0.424153 11.9376 0.60719 12.4149C0.799228 12.9073 1.05428 13.3277 1.47136 13.742C1.88545 14.1593 2.30553 14.4175 2.79763 14.6067C3.27472 14.7928 3.82083 14.9189 4.61899 14.955C5.42015 14.991 5.6752 15 7.70961 15C9.74702 15 10.0021 14.991 10.8002 14.955C11.5984 14.9189 12.1445 14.7898 12.6216 14.6067C13.1137 14.4145 13.5338 14.1593 13.9479 13.742C14.3619 13.3247 14.623 12.9073 14.812 12.4149C14.9981 11.9376 15.1241 11.3911 15.1601 10.5925C15.1961 9.79083 15.2051 9.53563 15.2051 7.5C15.2051 5.46437 15.1991 5.20617 15.1631 4.40753ZM13.8158 10.5324C13.7828 11.265 13.6598 11.6643 13.5578 11.9255C13.4228 12.2738 13.2577 12.526 12.9937 12.7902C12.7296 13.0544 12.4806 13.2136 12.1295 13.3547C11.8654 13.4568 11.4664 13.5799 10.7372 13.6129C9.94806 13.6489 9.71101 13.6579 7.70661 13.6579C5.70221 13.6579 5.46516 13.6489 4.676 13.6129C3.94386 13.5799 3.54478 13.4568 3.28373 13.3547C2.93566 13.2196 2.68361 13.0544 2.41955 12.7902C2.1555 12.526 1.99647 12.2768 1.85544 11.9255C1.75342 11.6613 1.63039 11.262 1.59739 10.5324C1.56138 9.74279 1.55238 9.5056 1.55238 7.5C1.55238 5.4944 1.56138 5.25721 1.59739 4.46757C1.63039 3.73499 1.75342 3.33567 1.85544 3.07446C1.99047 2.72618 2.1555 2.47398 2.41955 2.20977C2.68361 1.94556 2.93265 1.78643 3.28373 1.64532C3.54778 1.54323 3.94686 1.42014 4.676 1.38711C5.46516 1.35108 5.70221 1.34207 7.70661 1.34207C9.71101 1.34207 9.94806 1.35108 10.7372 1.38711C11.4694 1.42014 11.8684 1.54323 12.1295 1.64532C12.4776 1.78042 12.7296 1.94556 12.9937 2.20977C13.2577 2.47398 13.4168 2.72318 13.5578 3.07446C13.6598 3.33867 13.7828 3.73799 13.8158 4.46757C13.8518 5.25721 13.8608 5.4944 13.8608 7.5C13.8608 9.5056 13.8488 9.74279 13.8158 10.5324Z" fill="url(#paint0_linear_880_186)"/>
<path d="M7.70665 3.6449C5.57623 3.6449 3.85388 5.37128 3.85388 7.49998C3.85388 9.63169 5.57923 11.3551 7.70665 11.3551C9.83408 11.3551 11.5594 9.62568 11.5594 7.49998C11.5594 5.36828 9.83708 3.6449 7.70665 3.6449ZM7.70665 10.001C6.32638 10.001 5.20715 8.88109 5.20715 7.49998C5.20715 6.11888 6.32638 4.99898 7.70665 4.99898C9.08693 4.99898 10.2062 6.11888 10.2062 7.49998C10.2062 8.88109 9.08693 10.001 7.70665 10.001Z" fill="url(#paint1_linear_880_186)"/>
<path d="M11.7094 4.39556C12.2066 4.39556 12.6096 3.99229 12.6096 3.49484C12.6096 2.99738 12.2066 2.59412 11.7094 2.59412C11.2123 2.59412 10.8093 2.99738 10.8093 3.49484C10.8093 3.99229 11.2123 4.39556 11.7094 4.39556Z" fill="#BC30A0"/>
<path d="M0.205078 7.5C0.205078 9.53863 0.21408 9.79383 0.250087 10.5925C0.286094 11.3911 0.41512 11.9376 0.598157 12.4149C0.790195 12.9073 1.04525 13.3277 1.46233 13.742C1.87641 14.1563 2.2965 14.4175 2.78859 14.6067C3.26569 14.7928 3.8118 14.9189 4.60996 14.955C5.41112 14.991 5.66617 15 7.70058 15C9.73798 15 9.99304 14.991 10.7912 14.955C11.5894 14.9189 12.1355 14.7898 12.6126 14.6067C13.1047 14.4145 13.5247 14.1593 13.9388 13.742C14.3529 13.3277 14.614 12.9073 14.803 12.4149C14.989 11.9376 15.1151 11.3911 15.1511 10.5925C15.1871 9.79083 15.1961 9.53563 15.1961 7.5C15.1961 5.46137 15.1871 5.20617 15.1511 4.40753C15.1151 3.60889 14.986 3.06245 14.803 2.58507C14.611 2.09267 14.3559 1.67234 13.9388 1.25801C13.5277 0.840672 13.1077 0.582466 12.6156 0.393315C12.1385 0.207166 11.5924 0.0810649 10.7942 0.045036C9.99304 0.0090072 9.73798 0 7.70358 0C5.66617 0 5.41112 0.0090072 4.61296 0.045036C3.8148 0.0810649 3.26869 0.210168 2.7916 0.393315C2.2995 0.585468 1.87941 0.840672 1.46533 1.25801C1.05125 1.67534 0.790195 2.09267 0.601157 2.58507C0.41512 3.06245 0.286094 3.60889 0.250087 4.40753C0.21408 5.20617 0.205078 5.46137 0.205078 7.5ZM1.55835 7.5C1.55835 5.4974 1.56735 5.25721 1.60336 4.46757C1.63636 3.73499 1.75939 3.33567 1.86141 3.07446C1.99644 2.72618 2.16147 2.47398 2.42552 2.20977C2.68957 1.94556 2.93862 1.78643 3.2897 1.64532C3.55375 1.54323 3.95283 1.42014 4.68197 1.38711C5.47113 1.35108 5.70818 1.34207 7.71258 1.34207C9.71698 1.34207 9.95403 1.35108 10.7432 1.38711C11.4753 1.42014 11.8744 1.54323 12.1355 1.64532C12.4835 1.78042 12.7356 1.94556 12.9996 2.20977C13.2637 2.47398 13.4227 2.72318 13.5638 3.07446C13.6658 3.33867 13.7888 3.73799 13.8218 4.46757C13.8578 5.25721 13.8668 5.4944 13.8668 7.5C13.8668 9.5056 13.8578 9.74279 13.8218 10.5324C13.7888 11.265 13.6658 11.6643 13.5638 11.9255C13.4287 12.2738 13.2637 12.526 12.9996 12.7902C12.7356 13.0544 12.4865 13.2136 12.1355 13.3547C11.8714 13.4568 11.4723 13.5799 10.7432 13.6129C9.95403 13.6489 9.71698 13.6579 7.71258 13.6579C5.70818 13.6579 5.47113 13.6489 4.68197 13.6129C3.94983 13.5799 3.55075 13.4568 3.2897 13.3547C2.94163 13.2196 2.68957 13.0544 2.42552 12.7902C2.16147 12.526 2.00244 12.2768 1.86141 11.9255C1.75939 11.6613 1.63636 11.262 1.60336 10.5324C1.56435 9.74279 1.55835 9.5026 1.55835 7.5Z" fill="url(#paint2_linear_880_186)"/>
<defs>
<linearGradient id="paint0_linear_880_186" x1="12.8898" y1="1.147" x2="2.03826" y2="14.4423" gradientUnits="userSpaceOnUse">
<stop stop-color="#AE3DAE"/>
<stop offset="0.0468721" stop-color="#B23BA6"/>
<stop offset="0.1216" stop-color="#BD368E"/>
<stop offset="0.2148" stop-color="#CE2E69"/>
<stop offset="0.3216" stop-color="#E62335"/>
<stop offset="0.418" stop-color="#FF1800"/>
</linearGradient>
<linearGradient id="paint1_linear_880_186" x1="9.54406" y1="4.40802" x2="5.60195" y2="11.0321" gradientUnits="userSpaceOnUse">
<stop stop-color="#E12F6A"/>
<stop offset="0.1705" stop-color="#EA3751"/>
<stop offset="0.3563" stop-color="#F13D3E"/>
<stop offset="0.5467" stop-color="#F64133"/>
<stop offset="0.7469" stop-color="#F7422F"/>
<stop offset="0.7946" stop-color="#F74C2F"/>
<stop offset="0.8743" stop-color="#F7652F"/>
<stop offset="0.9757" stop-color="#F78F2E"/>
<stop offset="1" stop-color="#F79A2E"/>
</linearGradient>
<linearGradient id="paint2_linear_880_186" x1="11.1039" y1="-0.617519" x2="4.46376" y2="15.2102" gradientUnits="userSpaceOnUse">
<stop offset="0.2341" stop-color="#9E35A5" stop-opacity="0"/>
<stop offset="0.4512" stop-color="#D42F7F" stop-opacity="0.5"/>
<stop offset="0.7524" stop-color="#F7772E"/>
<stop offset="0.9624" stop-color="#FEF780"/>
</linearGradient>
</defs>
</svg>
