<svg width="21" height="20" viewBox="0 0 21 20" fill="none" xmlns="http://www.w3.org/2000/svg">
<path fill-rule="evenodd" clip-rule="evenodd" d="M10.2051 1.66667C8.43696 1.66667 6.74126 2.36905 5.49102 3.61929C4.24078 4.86953 3.5384 6.56522 3.5384 8.33333C3.5384 10.915 5.21818 13.4202 7.06003 15.3644C7.96391 16.3185 8.87063 17.0996 9.5523 17.6424C9.806 17.8444 10.0276 18.0127 10.2051 18.1438C10.3825 18.0127 10.6041 17.8444 10.8578 17.6424C11.5395 17.0996 12.4462 16.3185 13.3501 15.3644C15.192 13.4202 16.8717 10.915 16.8717 8.33333C16.8717 6.56522 16.1694 4.86953 14.9191 3.61929C13.6689 2.36905 11.9732 1.66667 10.2051 1.66667ZM10.2051 19.1667C9.74282 19.86 9.74261 19.8599 9.74237 19.8597L9.73998 19.8582L9.73443 19.8544L9.71533 19.8415C9.69911 19.8305 9.67596 19.8147 9.64637 19.7942C9.58718 19.7532 9.50212 19.6934 9.39489 19.616C9.18052 19.4612 8.87704 19.2352 8.51409 18.9462C7.78951 18.3692 6.82123 17.5357 5.85011 16.5106C3.94195 14.4965 1.87173 11.585 1.87173 8.33333C1.87173 6.1232 2.74971 4.00358 4.31251 2.44078C5.87531 0.877974 7.99493 0 10.2051 0C12.4152 0 14.5348 0.877974 16.0976 2.44078C17.6604 4.00358 18.5384 6.1232 18.5384 8.33333C18.5384 11.585 16.4682 14.4965 14.56 16.5106C13.5889 17.5357 12.6206 18.3692 11.896 18.9462C11.5331 19.2352 11.2296 19.4612 11.0152 19.616C10.908 19.6934 10.823 19.7532 10.7638 19.7942C10.7342 19.8147 10.711 19.8305 10.6948 19.8415L10.6757 19.8544L10.6702 19.8582L10.6684 19.8593C10.6682 19.8595 10.6673 19.86 10.2051 19.1667ZM10.2051 19.1667L10.6673 19.86C10.3874 20.0467 10.0223 20.0464 9.74237 19.8597L10.2051 19.1667Z" fill="#757575"/>
<path fill-rule="evenodd" clip-rule="evenodd" d="M10.2051 6.66667C9.28459 6.66667 8.5384 7.41286 8.5384 8.33333C8.5384 9.25381 9.28459 10 10.2051 10C11.1255 10 11.8717 9.25381 11.8717 8.33333C11.8717 7.41286 11.1255 6.66667 10.2051 6.66667ZM6.87173 8.33333C6.87173 6.49238 8.36412 5 10.2051 5C12.046 5 13.5384 6.49238 13.5384 8.33333C13.5384 10.1743 12.046 11.6667 10.2051 11.6667C8.36412 11.6667 6.87173 10.1743 6.87173 8.33333Z" fill="#757575"/>
</svg>
