<svg width="111" height="75" viewBox="0 0 111 75" fill="none" xmlns="http://www.w3.org/2000/svg">
<rect width="111" height="75" fill="#F5F5F5"/>
<g clip-path="url(#clip0_0_1)">
<rect width="1512" height="2506" transform="translate(-1321 -20)" fill="#171D5B"/>
<rect width="1512.46" height="114.051" transform="translate(-1321 -19.5)" fill="#171D5B"/>
<path d="M6.87742 64.0845H2.44665C2.21588 64.0845 1.98511 64.0614 1.75434 64.0383C1.5928 64.0153 1.43127 63.946 1.2928 63.8537C1.17742 63.7614 1.08511 63.646 1.03896 63.5307C0.992804 63.3691 0.969727 63.2076 0.969727 63.046V61.9153H1.56973V62.8383C1.56973 62.9537 1.5928 63.0922 1.61588 63.2076C1.66203 63.2999 1.70819 63.3691 1.8005 63.4153C1.91588 63.4614 2.03127 63.5076 2.16973 63.5076C2.33127 63.5307 2.51588 63.5307 2.74665 63.5307H6.27742V61.3153H6.87742V64.0845ZM3.11588 60.4845C3.11588 60.2768 3.3005 60.0922 3.50819 60.0922C3.6005 60.0922 3.71588 60.1383 3.78511 60.2076C3.92358 60.3691 3.9005 60.623 3.73896 60.7614C3.6005 60.8768 3.36973 60.8768 3.23127 60.7614C3.13896 60.6691 3.09281 60.5768 3.11588 60.4845ZM4.06204 60.4845C4.06204 60.3922 4.10819 60.2768 4.17742 60.2076C4.33896 60.046 4.56973 60.046 4.73127 60.2076C4.89281 60.3691 4.89281 60.5999 4.73127 60.7614C4.56973 60.923 4.33896 60.923 4.17742 60.7614C4.08511 60.6691 4.06204 60.5768 4.06204 60.4845Z" fill="white"/>
<path d="M8.49246 58.8693V64.0846H7.89246V58.8693H8.49246Z" fill="white"/>
<path d="M11.9084 63.2765C11.9084 63.4842 11.8391 63.6919 11.6776 63.8534C11.493 64.015 11.2391 64.1073 10.9853 64.0842H9.23145V63.4842H10.9161C11.0776 63.4842 11.193 63.4611 11.2391 63.415C11.2853 63.3688 11.3084 63.2996 11.3084 63.2534C11.3084 63.2073 11.3084 63.1611 11.2853 63.0919C11.2391 62.9996 11.193 62.9073 11.1468 62.8381C11.0776 62.7227 10.9622 62.5611 10.8238 62.3534C10.6853 62.1458 10.4776 61.8458 10.2468 61.4765L10.8007 61.1304C10.9853 61.4765 11.1699 61.7534 11.3084 61.9842C11.4468 62.215 11.5622 62.3996 11.6545 62.5611C11.7238 62.6996 11.793 62.8381 11.8622 62.9765C11.8853 63.0458 11.9084 63.1611 11.9084 63.2765Z" fill="white"/>
<path d="M13.3842 58.8691V64.0845H12.7842V58.8691H13.3842Z" fill="white"/>
<path d="M16.1542 64.0851C16.0158 64.0851 15.8773 64.062 15.7619 63.9697C15.6696 63.9005 15.5773 63.8081 15.5311 63.7158C15.5311 64.0158 15.5081 64.3158 15.4619 64.5928C15.4388 64.8005 15.3465 65.0081 15.2311 65.1697C15.1158 65.3312 14.9311 65.4466 14.7465 65.4928C14.4927 65.562 14.2158 65.6081 13.9619 65.5851V65.0081C14.1465 65.0081 14.3311 64.9851 14.5158 64.9389C14.6311 64.8928 14.7465 64.8005 14.7927 64.6851C14.8619 64.5466 14.9081 64.4081 14.9081 64.2466C14.9081 64.062 14.9311 63.8543 14.9311 63.6005V61.6389H15.5311V62.6774C15.5311 62.8851 15.5773 63.0928 15.6696 63.2543C15.785 63.4158 15.9696 63.4851 16.1773 63.462C16.3158 63.4389 16.4542 63.5312 16.4773 63.6697C16.4773 63.6928 16.4773 63.7158 16.4773 63.7389C16.4773 63.8312 16.4542 63.9235 16.4081 63.9928C16.3158 64.062 16.2465 64.0851 16.1542 64.0851ZM14.8388 60.0466C14.8388 59.9543 14.885 59.8389 14.9542 59.7697C15.0235 59.7005 15.1158 59.6543 15.2311 59.6543C15.3235 59.6543 15.4388 59.7005 15.5081 59.7697C15.5773 59.8389 15.6235 59.9312 15.6235 60.0466C15.6235 60.2543 15.4619 60.4389 15.2311 60.4389C15.0004 60.4389 14.8388 60.2543 14.8388 60.0466Z" fill="white"/>
<path d="M16.1535 64.085C16.0151 64.1081 15.8766 64.0158 15.8535 63.8773C15.8535 63.8542 15.8535 63.8311 15.8535 63.8081C15.8535 63.7157 15.8766 63.6234 15.9227 63.5542C15.992 63.5081 16.0612 63.485 16.1535 63.485H17.2381C17.3766 63.4619 17.5151 63.5542 17.5381 63.6927C17.5381 63.7157 17.5381 63.7388 17.5381 63.7619C17.5381 63.8542 17.5151 63.9465 17.4689 64.0158C17.3997 64.0619 17.3304 64.085 17.2381 64.085H16.1535Z" fill="white"/>
<path d="M17.2377 64.085C17.0993 64.1081 16.9608 64.0158 16.9377 63.8773C16.9377 63.8542 16.9377 63.8311 16.9377 63.8081C16.9377 63.7157 16.9608 63.6234 17.007 63.5542C17.0762 63.5081 17.1454 63.485 17.2377 63.485H18.3224C18.4608 63.4619 18.5993 63.5542 18.6224 63.6927C18.6224 63.7157 18.6224 63.7388 18.6224 63.7619C18.6224 63.8542 18.5993 63.9465 18.5531 64.0158C18.4839 64.0619 18.4147 64.085 18.3224 64.085H17.2377Z" fill="white"/>
<path d="M18.3234 64.085C18.185 64.1081 18.0465 64.0158 18.0234 63.8773C18.0234 63.8542 18.0234 63.8311 18.0234 63.8081C18.0234 63.7157 18.0465 63.6234 18.0927 63.5542C18.1619 63.5081 18.2311 63.485 18.3234 63.485H19.4081C19.5465 63.4619 19.685 63.5542 19.7081 63.6927C19.7081 63.7157 19.7081 63.7388 19.7081 63.7619C19.7081 63.8542 19.685 63.9465 19.6388 64.0158C19.5696 64.0619 19.5004 64.085 19.4081 64.085H18.3234Z" fill="white"/>
<path d="M19.4084 64.085C19.2699 64.1081 19.1315 64.0158 19.1084 63.8773C19.1084 63.8542 19.1084 63.8311 19.1084 63.8081C19.1084 63.7157 19.1315 63.6234 19.1776 63.5542C19.2469 63.5081 19.3161 63.485 19.4084 63.485H20.493C20.6315 63.4619 20.7699 63.5542 20.793 63.6927C20.793 63.7157 20.793 63.7388 20.793 63.7619C20.793 63.8542 20.7699 63.9465 20.7238 64.0158C20.6546 64.0619 20.5853 64.085 20.493 64.085H19.4084Z" fill="white"/>
<path d="M20.4689 64.085C20.3305 64.1081 20.192 64.0158 20.1689 63.8773C20.1689 63.8542 20.1689 63.8311 20.1689 63.8081C20.1689 63.7157 20.192 63.6234 20.2382 63.5542C20.3074 63.5081 20.3766 63.485 20.4689 63.485H21.5536C21.692 63.4619 21.8305 63.5542 21.8536 63.6927C21.8536 63.7157 21.8536 63.7388 21.8536 63.7619C21.8536 63.8542 21.8305 63.9465 21.7843 64.0158C21.7151 64.0619 21.6459 64.085 21.5536 64.085H20.4689Z" fill="white"/>
<path d="M21.5529 64.085C21.4145 64.1081 21.276 64.0158 21.2529 63.8773C21.2529 63.8542 21.2529 63.8311 21.2529 63.8081C21.2529 63.7157 21.276 63.6234 21.3222 63.5542C21.3914 63.5081 21.4606 63.485 21.5529 63.485H22.6375C22.776 63.4619 22.9145 63.5542 22.9375 63.6927C22.9375 63.7157 22.9375 63.7388 22.9375 63.7619C22.9375 63.8542 22.9145 63.9465 22.8683 64.0158C22.7991 64.0619 22.7299 64.085 22.6375 64.085H21.5529Z" fill="white"/>
<path d="M22.6389 64.085C22.5004 64.1081 22.3619 64.0158 22.3389 63.8773C22.3389 63.8542 22.3389 63.8311 22.3389 63.8081C22.3389 63.7157 22.3619 63.6234 22.4081 63.5542C22.4773 63.5081 22.5466 63.485 22.6389 63.485H23.7235C23.8619 63.4619 24.0004 63.5542 24.0235 63.6927C24.0235 63.7157 24.0235 63.7388 24.0235 63.7619C24.0235 63.8542 24.0004 63.9465 23.9543 64.0158C23.885 64.0619 23.8158 64.085 23.7235 64.085H22.6389Z" fill="white"/>
<path d="M23.7238 64.085C23.5853 64.1081 23.4468 64.0158 23.4238 63.8773C23.4238 63.8542 23.4238 63.8311 23.4238 63.8081C23.4238 63.7157 23.4468 63.6234 23.493 63.5542C23.5622 63.5081 23.6315 63.485 23.7238 63.485H24.8084C24.9468 63.4619 25.0853 63.5542 25.1084 63.6927C25.1084 63.7157 25.1084 63.7388 25.1084 63.7619C25.1084 63.8542 25.0853 63.9465 25.0392 64.0158C24.9699 64.0619 24.9007 64.085 24.8084 64.085H23.7238Z" fill="white"/>
<path d="M24.807 64.085C24.6686 64.1081 24.5301 64.0158 24.507 63.8773C24.507 63.8542 24.507 63.8311 24.507 63.8081C24.507 63.7157 24.5301 63.6234 24.5763 63.5542C24.6455 63.5081 24.7147 63.485 24.807 63.485H25.8916C26.0301 63.4619 26.1686 63.5542 26.1916 63.6927C26.1916 63.7157 26.1916 63.7388 26.1916 63.7619C26.1916 63.8542 26.1686 63.9465 26.1224 64.0158C26.0532 64.0619 25.9839 64.085 25.8916 64.085H24.807Z" fill="white"/>
<path d="M25.8928 64.085C25.7543 64.1081 25.6159 64.0158 25.5928 63.8773C25.5928 63.8542 25.5928 63.8311 25.5928 63.8081C25.5928 63.7157 25.6158 63.6234 25.662 63.5542C25.7312 63.5081 25.8005 63.485 25.8928 63.485H26.9774C27.1159 63.4619 27.2543 63.5542 27.2774 63.6927C27.2774 63.7157 27.2774 63.7388 27.2774 63.7619C27.2774 63.8542 27.2543 63.9465 27.2082 64.0158C27.1389 64.0619 27.0697 64.085 26.9774 64.085H25.8928Z" fill="white"/>
<path d="M26.9533 64.085C26.8148 64.1081 26.6763 64.0158 26.6533 63.8773C26.6533 63.8542 26.6533 63.8311 26.6533 63.8081C26.6533 63.7157 26.6763 63.6234 26.7225 63.5542C26.7917 63.5081 26.861 63.485 26.9533 63.485H28.0379C28.1763 63.4619 28.3148 63.5542 28.3379 63.6927C28.3379 63.7157 28.3379 63.7388 28.3379 63.7619C28.3379 63.8542 28.3148 63.9465 28.2686 64.0158C28.1994 64.0619 28.1302 64.085 28.0379 64.085H26.9533Z" fill="white"/>
<path d="M28.0373 64.085C27.8988 64.1081 27.7604 64.0158 27.7373 63.8773C27.7373 63.8542 27.7373 63.8311 27.7373 63.8081C27.7373 63.7157 27.7604 63.6234 27.8065 63.5542C27.8758 63.5081 27.945 63.485 28.0373 63.485H29.1219C29.2604 63.4619 29.3988 63.5542 29.4219 63.6927C29.4219 63.7157 29.4219 63.7388 29.4219 63.7619C29.4219 63.8542 29.3988 63.9465 29.3527 64.0158C29.2835 64.0619 29.2142 64.085 29.1219 64.085H28.0373Z" fill="white"/>
<path d="M29.1223 64.085C28.9838 64.1081 28.8453 64.0158 28.8223 63.8773C28.8223 63.8542 28.8223 63.8311 28.8223 63.8081C28.8223 63.7157 28.8453 63.6234 28.8915 63.5542C28.9607 63.5081 29.03 63.485 29.1223 63.485H30.2069C30.3453 63.4619 30.4838 63.5542 30.5069 63.6927C30.5069 63.7157 30.5069 63.7388 30.5069 63.7619C30.5069 63.8542 30.4838 63.9465 30.4377 64.0158C30.3684 64.0619 30.2992 64.085 30.2069 64.085H29.1223Z" fill="white"/>
<path d="M30.2072 64.085C30.0688 64.1081 29.9303 64.0158 29.9072 63.8773C29.9072 63.8542 29.9072 63.8311 29.9072 63.8081C29.9072 63.7157 29.9303 63.6234 29.9765 63.5542C30.0457 63.5081 30.1149 63.485 30.2072 63.485H31.2918C31.4303 63.4619 31.5688 63.5542 31.5918 63.6927C31.5918 63.7157 31.5918 63.7388 31.5918 63.7619C31.5918 63.8542 31.5688 63.9465 31.5226 64.0158C31.4534 64.0619 31.3842 64.085 31.2918 64.085H30.2072Z" fill="white"/>
<path d="M31.2921 64.085C31.1537 64.1081 31.0152 64.0158 30.9921 63.8773C30.9921 63.8542 30.9921 63.8311 30.9921 63.8081C30.9921 63.7157 31.0152 63.6234 31.0614 63.5542C31.1306 63.5081 31.1998 63.485 31.2921 63.485H32.3767C32.5152 63.4619 32.6537 63.5542 32.6767 63.6927C32.6767 63.7157 32.6767 63.7388 32.6767 63.7619C32.6767 63.8542 32.6537 63.9465 32.6075 64.0158C32.5383 64.0619 32.4691 64.085 32.3767 64.085H31.2921Z" fill="white"/>
<path d="M32.3529 64.0849C32.2145 64.1079 32.076 64.0156 32.0529 63.8772C32.0529 63.8541 32.0529 63.831 32.0529 63.8079C32.0529 63.7156 32.076 63.6233 32.1221 63.5541C32.1914 63.5079 32.2606 63.4849 32.3529 63.4849H33.4375C33.576 63.4618 33.7145 63.5541 33.7375 63.6925C33.7375 63.7156 33.7375 63.7387 33.7375 63.7618C33.7375 63.8541 33.7145 63.9464 33.6683 64.0156C33.5991 64.0618 33.5298 64.0849 33.4375 64.0849H32.3529Z" fill="white"/>
<path d="M37.9161 64.0847C37.7546 64.0847 37.593 64.0616 37.4315 63.9693C37.293 63.877 37.1776 63.7616 37.1084 63.6V63.577C37.0161 63.7616 36.8776 63.9 36.693 64.0154C36.4853 64.1308 36.2546 64.177 36.0238 64.177C35.793 64.177 35.5622 64.1308 35.3315 64.0616C35.0776 63.9693 34.8238 63.8308 34.6161 63.6693C34.5699 63.7616 34.5007 63.8308 34.4315 63.9C34.3622 63.9462 34.293 63.9923 34.2238 64.0154C34.1546 64.0385 34.0622 64.0616 33.993 64.0616C33.9007 64.0616 33.8315 64.0847 33.7392 64.0616H33.4161C33.2776 64.0847 33.1392 63.9923 33.1161 63.8539C33.1161 63.8308 33.1161 63.8077 33.1161 63.7847C33.1161 63.6923 33.1392 63.6 33.1853 63.5308C33.2546 63.4847 33.3238 63.4616 33.4161 63.4616H33.7161C33.7853 63.4616 33.8315 63.4616 33.9007 63.4385C33.9699 63.4154 34.0392 63.3923 34.0853 63.3462C34.1546 63.277 34.2238 63.2308 34.2699 63.1385C34.3392 63.0231 34.4084 62.9077 34.4315 62.7923C34.5238 62.5385 34.6392 62.2847 34.7776 62.0308C34.8699 61.8693 35.0084 61.7077 35.1469 61.5923C35.2622 61.5 35.4007 61.4308 35.5392 61.3847C35.6776 61.3616 35.793 61.3385 35.9315 61.3385C36.1161 61.3385 36.2776 61.3616 36.4392 61.4539C36.6007 61.5231 36.7392 61.6154 36.8546 61.7539C36.9699 61.8923 37.0622 62.0539 37.1315 62.2154C37.2007 62.4 37.2238 62.6077 37.2238 62.8154C37.2238 62.8385 37.2238 62.8847 37.2238 62.9077C37.2238 62.9308 37.2238 62.977 37.2238 63C37.2699 63.1385 37.3392 63.2539 37.4315 63.3462C37.5699 63.4385 37.7084 63.4846 37.8699 63.4616C38.0084 63.4385 38.1469 63.5308 38.1699 63.6693C38.1699 63.6923 38.1699 63.7154 38.1699 63.7385C38.1699 63.8308 38.1469 63.9231 38.1007 63.9923C38.1007 64.0616 38.0084 64.0847 37.9161 64.0847ZM36.6699 62.7923C36.6699 62.677 36.6469 62.5847 36.6238 62.4693C36.6007 62.377 36.5546 62.2847 36.4853 62.1923C36.4161 62.1231 36.3469 62.0539 36.2546 62.0077C36.1622 61.9616 36.0469 61.9385 35.9546 61.9385C35.7469 61.9385 35.5392 62.0539 35.4007 62.2154C35.1699 62.4923 35.0084 62.8154 34.9161 63.1616C35.0776 63.277 35.2622 63.3693 35.4469 63.4385C35.6315 63.5077 35.8161 63.5308 36.0007 63.5539C36.1853 63.5539 36.3469 63.5077 36.4853 63.3923C36.6238 63.2308 36.693 63 36.6699 62.7923Z" fill="white"/>
<path d="M37.9389 64.0844C37.8005 64.1075 37.662 64.0152 37.6389 63.8767C37.6389 63.8536 37.6389 63.8306 37.6389 63.8075C37.6389 63.7152 37.662 63.6229 37.7081 63.5536C37.7774 63.5075 37.8466 63.4844 37.9389 63.4844H38.5158C38.5851 63.4844 38.6774 63.4844 38.7466 63.4613C38.8158 63.4613 38.862 63.4382 38.9081 63.3921C38.9543 63.3459 39.0005 63.2998 39.0235 63.2306C39.0466 63.1382 39.0697 63.0459 39.0697 62.9536V58.869H39.6697V62.6767C39.6697 62.8844 39.7158 63.0921 39.8081 63.2536C39.9235 63.3921 40.1081 63.4844 40.2928 63.4613C40.4312 63.4382 40.5697 63.5306 40.5928 63.669C40.5928 63.6921 40.5928 63.7152 40.5928 63.7382C40.5928 63.8306 40.5697 63.9229 40.5235 63.9921C40.4543 64.0383 40.3851 64.0613 40.2928 64.0613C40.1312 64.0613 39.9697 64.0152 39.8312 63.9229C39.7158 63.8306 39.6466 63.7152 39.6005 63.5767C39.5312 63.7613 39.3697 63.8998 39.1851 63.969C38.9543 64.0382 38.7005 64.0613 38.4466 64.0613L37.9389 64.0844Z" fill="white"/>
<path d="M40.2922 64.0845C40.1537 64.1076 40.0153 64.0153 39.9922 63.8768C39.9922 63.8538 39.9922 63.8307 39.9922 63.8076C39.9922 63.7153 40.0153 63.623 40.0614 63.5538C40.1306 63.5076 40.1999 63.4845 40.2922 63.4845H41.423V58.8691H42.023V64.0845H40.2922Z" fill="white"/>
<path d="M45.9456 63.4845C45.8072 63.4845 45.6687 63.4614 45.5302 63.4383C45.3687 63.3922 45.2302 63.346 45.0918 63.2537C44.9533 63.1614 44.8148 63.0229 44.7456 62.8845C44.6302 62.6999 44.5841 62.4691 44.6071 62.2383C44.6071 62.0075 44.6533 61.7768 44.7456 61.5922C44.8379 61.4306 44.9533 61.2691 45.1148 61.1537C45.2533 61.0383 45.4148 60.9691 45.5995 60.9229C45.761 60.8768 45.9456 60.8537 46.1302 60.8537H47.2841V62.9306C47.261 63.0922 47.3072 63.2306 47.3764 63.3691C47.4456 63.4614 47.5841 63.4845 47.7918 63.4845H47.9764C48.1148 63.4614 48.2533 63.5537 48.2764 63.7152C48.2764 63.7383 48.2764 63.7614 48.2764 63.7845C48.2764 63.8768 48.2533 63.9691 48.2072 64.0383C48.1379 64.0845 48.0687 64.1075 47.9764 64.1075H47.7225C47.6072 64.1075 47.4918 64.1075 47.3533 64.0845C47.2379 64.0614 47.1456 64.0152 47.0533 63.9691C46.961 63.8999 46.8918 63.8306 46.8225 63.7383C46.7533 63.6229 46.7072 63.5075 46.7072 63.3691C46.5918 63.4152 46.4764 63.4383 46.3379 63.4614C46.1995 63.4614 46.061 63.4845 45.9456 63.4845ZM45.1841 62.1691C45.1841 62.3537 45.2533 62.5383 45.3687 62.6537C45.5533 62.7922 45.761 62.8614 45.9918 62.8383C46.1071 62.8383 46.2225 62.8152 46.3379 62.7922C46.4533 62.7691 46.5687 62.746 46.661 62.6999V61.4075H46.0148C45.8072 61.4075 45.5995 61.4537 45.4148 61.5922C45.2533 61.7537 45.161 61.9614 45.1841 62.1691ZM45.3456 59.4922C45.3456 59.2845 45.5302 59.0999 45.7379 59.0999C45.9456 59.0999 46.1302 59.2845 46.1302 59.4922C46.1302 59.5845 46.0841 59.6999 46.0148 59.7691C45.8533 59.9306 45.6225 59.9306 45.461 59.7691C45.3918 59.6999 45.3456 59.5845 45.3456 59.4922ZM46.2918 59.4922C46.2918 59.2845 46.4533 59.0999 46.6841 59.0999C46.8918 59.0999 47.0764 59.2614 47.0764 59.4922C47.0764 59.7229 46.9148 59.8845 46.6841 59.8845C46.5918 59.8845 46.4764 59.8383 46.4072 59.7691C46.3379 59.6999 46.2918 59.5845 46.2918 59.4922Z" fill="white"/>
<path d="M47.9542 64.0843C47.8157 64.1074 47.6773 64.0151 47.6542 63.8766C47.6542 63.8535 47.6542 63.8305 47.6542 63.8074C47.6542 63.7151 47.6773 63.6228 47.7234 63.5535C47.7926 63.5074 47.8619 63.4843 47.9542 63.4843H48.4388C48.5311 63.4843 48.6465 63.4843 48.7388 63.4612C48.808 63.4612 48.8773 63.4381 48.9465 63.392C48.9926 63.3458 49.0388 63.2997 49.0619 63.2305C49.0849 63.1381 49.108 63.0458 49.108 62.9535V61.292H49.708V62.6997C49.708 62.8151 49.708 62.9305 49.7311 63.0228C49.7542 63.1151 49.7773 63.2074 49.8234 63.2766C49.8696 63.3458 49.9388 63.392 50.0311 63.4381C50.1234 63.4843 50.2388 63.5074 50.3542 63.5074C50.4926 63.4843 50.6311 63.5766 50.6542 63.7151C50.6542 63.7381 50.6542 63.7612 50.6542 63.7843C50.6542 63.8766 50.6311 63.9689 50.5849 64.0381C50.5157 64.0843 50.4465 64.1074 50.3542 64.1074C50.1926 64.1074 50.0311 64.0612 49.8926 63.9689C49.7773 63.8766 49.708 63.7612 49.6619 63.6228C49.5926 63.8074 49.4311 63.9458 49.2465 64.0151C49.0157 64.0843 48.7849 64.1074 48.5542 64.1074H47.9542V64.0843ZM48.5311 65.192C48.5311 65.0997 48.5773 64.9843 48.6465 64.9151C48.808 64.7535 49.0388 64.7535 49.2003 64.9151C49.2696 64.9843 49.3157 65.0766 49.3157 65.192C49.3157 65.2843 49.2696 65.3997 49.2003 65.4689C49.0388 65.6305 48.808 65.6305 48.6465 65.4689C48.5773 65.3997 48.5311 65.2843 48.5311 65.192ZM49.5003 65.192C49.5003 65.0997 49.5465 64.9843 49.6157 64.9151C49.6849 64.8458 49.7773 64.7997 49.8926 64.7997C49.9849 64.7997 50.1003 64.8458 50.1696 64.9151C50.2388 64.9843 50.2849 65.0766 50.2849 65.192C50.2849 65.3997 50.1234 65.5843 49.8926 65.5843C49.8003 65.5843 49.6849 65.5381 49.6157 65.4689C49.5234 65.3997 49.4773 65.2843 49.5003 65.192Z" fill="white"/>
<path d="M50.3537 64.085C50.2153 64.1081 50.0768 64.0158 50.0537 63.8773C50.0537 63.8542 50.0537 63.8311 50.0537 63.8081C50.0537 63.7157 50.0768 63.6234 50.1229 63.5542C50.1922 63.5081 50.2614 63.485 50.3537 63.485H51.4383C51.5768 63.4619 51.7153 63.5542 51.7383 63.6927C51.7383 63.7157 51.7383 63.7388 51.7383 63.7619C51.7383 63.8542 51.7153 63.9465 51.6691 64.0158C51.5999 64.0619 51.5306 64.085 51.4383 64.085H50.3537Z" fill="white"/>
<path d="M51.4379 64.085C51.2995 64.1081 51.161 64.0158 51.1379 63.8773C51.1379 63.8542 51.1379 63.8311 51.1379 63.8081C51.1379 63.7157 51.161 63.6234 51.2072 63.5542C51.2764 63.5081 51.3456 63.485 51.4379 63.485H52.5226C52.661 63.4619 52.7995 63.5542 52.8226 63.6927C52.8226 63.7157 52.8226 63.7388 52.8226 63.7619C52.8226 63.8542 52.7995 63.9465 52.7533 64.0158C52.6841 64.0619 52.6149 64.085 52.5226 64.085H51.4379Z" fill="white"/>
<path d="M52.5236 64.085C52.3852 64.1081 52.2467 64.0158 52.2236 63.8773C52.2236 63.8542 52.2236 63.8311 52.2236 63.8081C52.2236 63.7157 52.2467 63.6234 52.2929 63.5542C52.3621 63.5081 52.4313 63.485 52.5236 63.485H53.6082C53.7467 63.4619 53.8852 63.5542 53.9083 63.6927C53.9083 63.7157 53.9083 63.7388 53.9083 63.7619C53.9083 63.8542 53.8852 63.9465 53.839 64.0158C53.7698 64.0619 53.7006 64.085 53.6082 64.085H52.5236Z" fill="white"/>
<path d="M53.6076 64.085C53.4692 64.1081 53.3307 64.0158 53.3076 63.8773C53.3076 63.8542 53.3076 63.8311 53.3076 63.8081C53.3076 63.7157 53.3307 63.6234 53.3768 63.5542C53.4461 63.5081 53.5153 63.485 53.6076 63.485H54.6922C54.8307 63.4619 54.9692 63.5542 54.9922 63.6927C54.9922 63.7157 54.9922 63.7388 54.9922 63.7619C54.9922 63.8542 54.9692 63.9465 54.923 64.0158C54.8538 64.0619 54.7845 64.085 54.6922 64.085H53.6076Z" fill="white"/>
<path d="M54.6693 64.0849C54.5309 64.1079 54.3924 64.0156 54.3693 63.8772C54.3693 63.8541 54.3693 63.831 54.3693 63.8079C54.3693 63.7156 54.3924 63.6233 54.4386 63.5541C54.5078 63.5079 54.577 63.4849 54.6693 63.4849H55.7539C55.8924 63.4618 56.0309 63.5541 56.0539 63.6925C56.0539 63.7156 56.0539 63.7387 56.0539 63.7618C56.0539 63.8541 56.0309 63.9464 55.9847 64.0156C55.9155 64.0618 55.8462 64.0849 55.7539 64.0849H54.6693Z" fill="white"/>
<path d="M55.7531 64.085C55.6147 64.1081 55.4762 64.0158 55.4531 63.8773C55.4531 63.8542 55.4531 63.8311 55.4531 63.8081C55.4531 63.7157 55.4762 63.6234 55.5224 63.5542C55.5916 63.5081 55.6608 63.485 55.7531 63.485H56.8377C56.9762 63.4619 57.1147 63.5542 57.1377 63.6927C57.1377 63.7157 57.1377 63.7388 57.1377 63.7619C57.1377 63.8542 57.1147 63.9465 57.0685 64.0158C56.9993 64.0619 56.93 64.085 56.8377 64.085H55.7531Z" fill="white"/>
<path d="M56.8391 64.085C56.7006 64.1081 56.5621 64.0158 56.5391 63.8773C56.5391 63.8542 56.5391 63.8311 56.5391 63.8081C56.5391 63.7157 56.5621 63.6234 56.6083 63.5542C56.6775 63.5081 56.7468 63.485 56.8391 63.485H57.9237C58.0621 63.4619 58.2006 63.5542 58.2237 63.6927C58.2237 63.7157 58.2237 63.7388 58.2237 63.7619C58.2237 63.8542 58.2006 63.9465 58.1544 64.0158C58.0852 64.0619 58.016 64.085 57.9237 64.085H56.8391Z" fill="white"/>
<path d="M57.923 64.085C57.7845 64.1081 57.6461 64.0158 57.623 63.8773C57.623 63.8542 57.623 63.8311 57.623 63.8081C57.623 63.7157 57.6461 63.6234 57.6922 63.5542C57.7614 63.5081 57.8307 63.485 57.923 63.485H59.0076C59.1461 63.4619 59.2845 63.5542 59.3076 63.6927C59.3076 63.7157 59.3076 63.7388 59.3076 63.7619C59.3076 63.8542 59.2845 63.9465 59.2384 64.0158C59.1691 64.0619 59.0999 64.085 59.0076 64.085H57.923Z" fill="white"/>
<path d="M59.0072 64.085C58.8688 64.1081 58.7303 64.0157 58.7072 63.8773C58.7072 63.8542 58.7072 63.8311 58.7072 63.8081C58.7072 63.7157 58.7303 63.6234 58.7764 63.5542C58.8457 63.5081 58.9149 63.485 59.0072 63.485H59.4918C59.5841 63.485 59.6995 63.485 59.7918 63.4619C59.8611 63.4619 59.9303 63.4388 59.9995 63.3927C60.0457 63.3465 60.0918 63.3004 60.1149 63.2311C60.138 63.1388 60.1611 63.0465 60.1611 62.9542V61.2927H60.7611V62.7004C60.7611 62.8157 60.7611 62.9311 60.7841 63.0234C60.8072 63.1157 60.8303 63.2081 60.8764 63.2773C60.9226 63.3465 60.9918 63.3927 61.0841 63.4388C61.1764 63.485 61.2918 63.5081 61.4072 63.5081C61.5457 63.485 61.6841 63.5773 61.7072 63.7157C61.7072 63.7388 61.7072 63.7619 61.7072 63.785C61.7072 63.8773 61.6841 63.9696 61.638 64.0388C61.5688 64.085 61.4995 64.1081 61.4072 64.1081C61.2457 64.1081 61.0841 64.0619 60.9457 63.9696C60.8303 63.8773 60.7611 63.7619 60.7149 63.6234C60.6457 63.8081 60.4841 63.9465 60.2995 64.0157C60.0688 64.085 59.838 64.1081 59.6072 64.1081H59.0072V64.085ZM60.0918 60.0465C60.0918 59.9542 60.138 59.8388 60.2072 59.7696C60.3688 59.6081 60.5995 59.6081 60.7611 59.7696C60.8303 59.8388 60.8764 59.9311 60.8764 60.0465C60.8764 60.2542 60.6918 60.4388 60.4841 60.4388C60.2764 60.4388 60.0918 60.2542 60.0918 60.0465Z" fill="white"/>
<path d="M61.384 64.0845C61.2455 64.1076 61.1071 64.0153 61.084 63.8768C61.084 63.8538 61.084 63.8307 61.084 63.8076C61.084 63.7153 61.1071 63.623 61.1532 63.5538C61.2224 63.5076 61.2917 63.4845 61.384 63.4845H62.2148V58.8691H62.8148V62.4461C63.0455 62.0768 63.3224 61.7538 63.6917 61.4999C64.0378 61.2691 64.4532 61.1538 64.8455 61.1768C65.2609 61.1538 65.6763 61.3153 65.9532 61.6153C66.2301 61.9614 66.3686 62.3999 66.3455 62.8384V64.0845H61.384ZM65.7686 63.4845V62.9999C65.7686 62.8384 65.7455 62.6999 65.7225 62.5384C65.6994 62.3999 65.6301 62.2615 65.5378 62.1461C65.4455 62.0307 65.3301 61.9384 65.2148 61.8922C65.0532 61.823 64.8917 61.7999 64.7301 61.7999C64.4994 61.7999 64.2686 61.8461 64.084 61.9614C63.8763 62.0768 63.6917 62.2153 63.5532 62.3768C63.3917 62.5384 63.2532 62.723 63.1378 62.9307C63.0224 63.1153 62.9301 63.323 62.8609 63.5076L65.7686 63.4845Z" fill="white"/>
<path d="M69.8772 64.0846C69.8772 64.3384 69.8079 64.5922 69.6926 64.823C69.6002 65.0076 69.4387 65.1692 69.2541 65.2846C69.0464 65.3999 68.8387 65.4922 68.6079 65.5384C68.331 65.5845 68.0541 65.6076 67.7772 65.6076H67.4772V65.0076H67.7079C67.9156 65.0076 68.1233 65.0076 68.331 64.9845C68.4926 64.9615 68.6772 64.9153 68.8156 64.8461C68.9541 64.7769 69.0695 64.6846 69.1387 64.5692C69.231 64.4307 69.2772 64.2692 69.2541 64.0846H68.4233C68.2387 64.0846 68.0541 64.0615 67.8695 64.0153C67.7079 63.9692 67.5695 63.8999 67.431 63.8076C67.2926 63.6922 67.2002 63.5769 67.131 63.4153C67.0618 63.2307 67.0156 63.023 67.0156 62.8153C67.0156 62.6076 67.0387 62.423 67.1079 62.2384C67.1772 62.0538 67.2695 61.8922 67.3849 61.7307C67.5233 61.5922 67.6618 61.4538 67.8464 61.3845C68.031 61.2922 68.2387 61.2461 68.4464 61.2461C68.6772 61.2461 68.8849 61.2922 69.0925 61.3845C69.2772 61.4769 69.4156 61.6153 69.531 61.7769C69.6464 61.9615 69.7156 62.1692 69.7618 62.3769C69.8079 62.6307 69.831 62.9076 69.831 63.1615V63.5076H70.3387C70.4772 63.4846 70.6156 63.5769 70.6387 63.7153C70.6387 63.7384 70.6387 63.7615 70.6387 63.7846C70.6387 63.8769 70.6156 63.9692 70.5695 64.0384C70.5002 64.0845 70.431 64.1076 70.3387 64.1076L69.8772 64.0846ZM67.6618 62.7461C67.6387 62.9538 67.731 63.1615 67.8695 63.2999C68.0541 63.4384 68.2849 63.4846 68.4926 63.4846H69.2772V62.9999C69.3002 62.6999 69.231 62.3999 69.0925 62.1461C68.9541 61.9153 68.7233 61.7999 68.4695 61.823C68.2156 61.823 67.9849 61.9384 67.8464 62.123C67.7772 62.2153 67.731 62.3076 67.7079 62.423C67.6849 62.5384 67.6618 62.6307 67.6618 62.7461Z" fill="white"/>
<path d="M70.4076 64.0844C70.2691 64.1075 70.1307 64.0152 70.1076 63.8767C70.1076 63.8536 70.1076 63.8306 70.1076 63.8075C70.1076 63.7152 70.1307 63.6229 70.1768 63.5536C70.2461 63.5075 70.3153 63.4844 70.4076 63.4844H71.5614V58.869H72.1615V64.0844H70.4076Z" fill="white"/>
<path d="M73.7766 58.8693V64.0846H73.1766V58.8693H73.7766Z" fill="white"/>
<path d="M77.6772 63.4847C77.5388 63.4847 77.4003 63.4616 77.2619 63.4386C77.1003 63.3924 76.9618 63.3462 76.8234 63.2539C76.6849 63.1616 76.5465 63.0232 76.4772 62.8847C76.3618 62.7001 76.3157 62.4693 76.3388 62.2386C76.3388 62.0078 76.3849 61.777 76.4772 61.5924C76.5695 61.4309 76.6849 61.2693 76.8234 61.1539C76.9618 61.0386 77.1234 60.9693 77.308 60.9232C77.4695 60.877 77.6542 60.8539 77.8388 60.8539H78.9926V62.9309C78.9695 63.0924 79.0157 63.2309 79.0849 63.3693C79.1542 63.4616 79.2926 63.4847 79.5003 63.4847H79.6849C79.8234 63.4616 79.9619 63.5539 79.9849 63.7155C79.9849 63.7386 79.9849 63.7616 79.9849 63.7847C79.9849 63.877 79.9619 63.9693 79.9157 64.0386C79.8465 64.0847 79.7772 64.1078 79.6849 64.1078H79.4311C79.3157 64.1078 79.1772 64.1078 79.0619 64.0847C78.9465 64.0616 78.8542 64.0155 78.7619 63.9693C78.6695 63.9001 78.6003 63.8309 78.5311 63.7386C78.4619 63.6232 78.4157 63.5078 78.4157 63.3693C78.3003 63.4155 78.1849 63.4386 78.0465 63.4616C77.9311 63.4616 77.7926 63.4847 77.6772 63.4847ZM76.9157 62.1693C76.9157 62.3539 76.9849 62.5386 77.1003 62.6539C77.2849 62.7924 77.4926 62.8616 77.7234 62.8386C77.8388 62.8386 77.9542 62.8155 78.0695 62.7924C78.1849 62.7693 78.3003 62.7463 78.3926 62.7001V61.4078H77.7465C77.5388 61.4078 77.3311 61.4539 77.1465 61.5924C76.9849 61.7539 76.8926 61.9616 76.9157 62.1693ZM77.0772 59.4924C77.0772 59.2847 77.2619 59.1001 77.4695 59.1001C77.6772 59.1001 77.8619 59.2847 77.8619 59.4924C77.8619 59.5847 77.8157 59.7001 77.7465 59.7693C77.5849 59.9309 77.3542 59.9309 77.1926 59.7693C77.1234 59.7001 77.0772 59.5847 77.0772 59.4924ZM78.0234 59.4924C78.0234 59.2847 78.1849 59.1001 78.4157 59.1001C78.508 59.1001 78.6234 59.1463 78.6926 59.2155C78.7619 59.2847 78.808 59.377 78.808 59.4924C78.808 59.7001 78.6465 59.8847 78.4157 59.8847C78.3234 59.8847 78.208 59.8386 78.1388 59.7693C78.0695 59.7001 78.0234 59.5847 78.0234 59.4924Z" fill="white"/>
<path d="M79.6838 64.085C79.5453 64.1081 79.4069 64.0158 79.3838 63.8773C79.3838 63.8542 79.3838 63.8311 79.3838 63.8081C79.3838 63.7157 79.4069 63.6234 79.453 63.5542C79.5223 63.5081 79.5915 63.485 79.6838 63.485H80.7684C80.9069 63.4619 81.0453 63.5542 81.0684 63.6927C81.0684 63.7157 81.0684 63.7388 81.0684 63.7619C81.0684 63.8542 81.0453 63.9465 80.9992 64.0158C80.9299 64.0619 80.8607 64.085 80.7684 64.085H79.6838Z" fill="white"/>
<path d="M80.7697 64.085C80.6313 64.1081 80.4928 64.0158 80.4697 63.8773C80.4697 63.8542 80.4697 63.8311 80.4697 63.8081C80.4697 63.7157 80.4928 63.6234 80.539 63.5542C80.6082 63.5081 80.6774 63.485 80.7697 63.485H81.8543C81.9928 63.4619 82.1313 63.5542 82.1543 63.6927C82.1543 63.7157 82.1543 63.7388 82.1543 63.7619C82.1543 63.8542 82.1313 63.9465 82.0851 64.0158C82.0159 64.0619 81.9467 64.085 81.8543 64.085H80.7697Z" fill="white"/>
<path d="M81.8536 64.0849C81.7151 64.1079 81.5767 64.0156 81.5536 63.8772C81.5536 63.8541 81.5536 63.831 81.5536 63.8079C81.5536 63.7156 81.5767 63.6233 81.6228 63.5541C81.6921 63.5079 81.7613 63.4849 81.8536 63.4849H82.9382C83.0767 63.4618 83.2151 63.5541 83.2382 63.6925C83.2382 63.7156 83.2382 63.7387 83.2382 63.7618C83.2382 63.8541 83.2151 63.9464 83.169 64.0156C83.0997 64.0618 83.0305 64.0849 82.9382 64.0849H81.8536Z" fill="white"/>
<path d="M82.9386 64.0849C82.8001 64.1079 82.6617 64.0156 82.6386 63.8772C82.6386 63.8541 82.6386 63.831 82.6386 63.8079C82.6386 63.7156 82.6617 63.6233 82.7078 63.5541C82.7771 63.5079 82.8463 63.4849 82.9386 63.4849H84.0232C84.1617 63.4618 84.3001 63.5541 84.3232 63.6925C84.3232 63.7156 84.3232 63.7387 84.3232 63.7618C84.3232 63.8541 84.3002 63.9464 84.254 64.0156C84.1848 64.0618 84.1155 64.0849 84.0232 64.0849H82.9386Z" fill="white"/>
<path d="M84.0227 64.0849C83.8843 64.1079 83.7458 64.0156 83.7227 63.8772C83.7227 63.8541 83.7227 63.831 83.7227 63.8079C83.7227 63.7156 83.7458 63.6233 83.7919 63.5541C83.8612 63.5079 83.9304 63.4849 84.0227 63.4849H85.1073C85.2458 63.4618 85.3843 63.5541 85.4073 63.6925C85.4073 63.7156 85.4073 63.7387 85.4073 63.7618C85.4073 63.8541 85.3843 63.9464 85.3381 64.0156C85.2689 64.0618 85.1996 64.0849 85.1073 64.0849H84.0227Z" fill="white"/>
<path d="M85.1086 64.085C84.9701 64.1081 84.8317 64.0158 84.8086 63.8773C84.8086 63.8542 84.8086 63.8311 84.8086 63.8081C84.8086 63.7157 84.8317 63.6234 84.8778 63.5542C84.9471 63.5081 85.0163 63.485 85.1086 63.485H86.1932C86.3317 63.4619 86.4701 63.5542 86.4932 63.6927C86.4932 63.7157 86.4932 63.7388 86.4932 63.7619C86.4932 63.8542 86.4701 63.9465 86.424 64.0158C86.3547 64.0619 86.2855 64.085 86.1932 64.085H85.1086Z" fill="white"/>
<path d="M86.1691 64.085C86.0307 64.1081 85.8922 64.0158 85.8691 63.8773C85.8691 63.8542 85.8691 63.8311 85.8691 63.8081C85.8691 63.7157 85.8922 63.6234 85.9384 63.5542C86.0076 63.5081 86.0768 63.485 86.1691 63.485H87.2307C87.3691 63.4619 87.5076 63.5542 87.5307 63.6927C87.5307 63.7157 87.5307 63.7388 87.5307 63.7619C87.5307 63.8542 87.5076 63.9465 87.4614 64.0158C87.3922 64.0619 87.323 64.085 87.2307 64.085H86.1691Z" fill="white"/>
<path d="M87.2543 64.085C87.1159 64.1081 86.9774 64.0158 86.9543 63.8773C86.9543 63.8542 86.9543 63.8311 86.9543 63.8081C86.9543 63.7157 86.9774 63.6234 87.0236 63.5542C87.0928 63.5081 87.162 63.485 87.2543 63.485H88.339C88.4774 63.4619 88.6159 63.5542 88.639 63.6927C88.639 63.7157 88.639 63.7388 88.639 63.7619C88.639 63.8542 88.6159 63.9465 88.5697 64.0158C88.5005 64.0619 88.4313 64.085 88.339 64.085H87.2543Z" fill="white"/>
<path d="M88.3371 64.085C88.1987 64.1081 88.0602 64.0158 88.0371 63.8773C88.0371 63.8542 88.0371 63.8311 88.0371 63.8081C88.0371 63.7157 88.0602 63.6234 88.1063 63.5542C88.1756 63.5081 88.2448 63.485 88.3371 63.485H89.4217C89.5602 63.4619 89.6987 63.5542 89.7217 63.6927C89.7217 63.7157 89.7217 63.7388 89.7217 63.7619C89.7217 63.8542 89.6986 63.9465 89.6525 64.0158C89.5833 64.0619 89.514 64.085 89.4217 64.085H88.3371Z" fill="white"/>
<path d="M89.423 64.0849C89.2845 64.1079 89.1461 64.0156 89.123 63.8772C89.123 63.8541 89.123 63.831 89.123 63.8079C89.123 63.7156 89.1461 63.6233 89.1922 63.5541C89.2614 63.5079 89.3307 63.4849 89.423 63.4849H90.5076C90.6461 63.4618 90.7845 63.5541 90.8076 63.6925C90.8076 63.7156 90.8076 63.7387 90.8076 63.7618C90.8076 63.8541 90.7845 63.9464 90.7384 64.0156C90.6691 64.0618 90.5999 64.0849 90.5076 64.0849H89.423Z" fill="white"/>
<path d="M90.508 64.0849C90.3696 64.1079 90.2311 64.0156 90.208 63.8772C90.208 63.8541 90.208 63.831 90.208 63.8079C90.208 63.7156 90.2311 63.6233 90.2772 63.5541C90.3465 63.5079 90.4157 63.4849 90.508 63.4849H91.5926C91.7311 63.4618 91.8696 63.5541 91.8926 63.6925C91.8926 63.7156 91.8926 63.7387 91.8926 63.7618C91.8926 63.8541 91.8695 63.9464 91.8234 64.0156C91.7542 64.0618 91.6849 64.0849 91.5926 64.0849H90.508Z" fill="white"/>
<path d="M91.5921 64.0849C91.4537 64.1079 91.3152 64.0156 91.2921 63.8772C91.2921 63.8541 91.2921 63.831 91.2921 63.8079C91.2921 63.7156 91.3152 63.6233 91.3613 63.5541C91.4306 63.5079 91.4998 63.4849 91.5921 63.4849H92.6767C92.8152 63.4618 92.9537 63.5541 92.9767 63.6925C92.9767 63.7156 92.9767 63.7387 92.9767 63.7618C92.9767 63.8541 92.9537 63.9464 92.9075 64.0156C92.8383 64.0618 92.769 64.0849 92.6767 64.0849H91.5921Z" fill="white"/>
<path d="M92.6535 64.085C92.5151 64.1081 92.3766 64.0158 92.3535 63.8773C92.3535 63.8542 92.3535 63.8311 92.3535 63.8081C92.3535 63.7157 92.3766 63.6234 92.4227 63.5542C92.492 63.5081 92.5612 63.485 92.6535 63.485H93.7381C93.8766 63.4619 94.0151 63.5542 94.0381 63.6927C94.0381 63.7157 94.0381 63.7388 94.0381 63.7619C94.0381 63.8542 94.0151 63.9465 93.9689 64.0158C93.8997 64.0619 93.8304 64.085 93.7381 64.085H92.6535Z" fill="white"/>
<path d="M96.2552 64.0852C96.1398 64.0852 96.0014 64.0852 95.886 64.039C95.7937 64.0159 95.7244 63.9698 95.6552 63.9236C95.586 63.8775 95.5398 63.8313 95.5167 63.7621C95.4706 63.7159 95.4475 63.6467 95.4244 63.5775C95.3783 63.6698 95.3321 63.7621 95.2398 63.8313C95.1475 63.9005 95.0552 63.9467 94.9629 63.9698C94.8244 64.0159 94.686 64.039 94.5475 64.039C94.386 64.0621 94.2014 64.0621 93.9937 64.0621H93.7629C93.6244 64.0852 93.486 63.9929 93.4629 63.8544C93.4629 63.8313 93.4629 63.8082 93.4629 63.7852C93.4629 63.6929 93.486 63.6005 93.5321 63.5313C93.6014 63.4852 93.6706 63.4621 93.7629 63.4621H94.0167C94.1552 63.4621 94.2937 63.4621 94.4321 63.439C94.5244 63.439 94.6167 63.4159 94.709 63.3698C94.7783 63.3236 94.8244 63.2775 94.8475 63.2082C94.8706 63.1159 94.8937 63.0236 94.8937 62.9313V61.6159H95.4937V62.6544C95.4937 62.7698 95.4937 62.8852 95.5167 62.9775C95.5167 63.0698 95.5398 63.1621 95.586 63.2313C95.6321 63.3005 95.6783 63.3467 95.7475 63.3929C95.8398 63.439 95.9321 63.4621 96.0244 63.4621C96.1167 63.1852 96.2552 62.9082 96.4167 62.6544C96.5783 62.3775 96.786 62.1236 96.9937 61.9159C97.2244 61.7082 97.4783 61.5236 97.7552 61.3852C98.0552 61.2467 98.3552 61.1775 98.6783 61.1775C99.0937 61.1544 99.5091 61.3159 99.8321 61.6159C100.132 61.9621 100.271 62.4005 100.248 62.8621V63.4852H100.801C100.94 63.4621 101.078 63.5544 101.101 63.6929C101.101 63.7159 101.101 63.739 101.101 63.7621C101.101 63.8544 101.078 63.9467 101.032 64.0159C100.963 64.0621 100.894 64.0852 100.801 64.0852H96.2552ZM99.6014 63.4852V63.0005C99.6014 62.839 99.5783 62.6775 99.5552 62.5159C99.5321 62.3775 99.4629 62.239 99.3706 62.1236C99.2783 62.0082 99.1629 61.939 99.0475 61.8698C98.886 61.8005 98.7244 61.7775 98.5629 61.7775C98.3321 61.7775 98.1014 61.8236 97.9167 61.939C97.7091 62.0313 97.5244 62.1698 97.3629 62.3313C97.2014 62.4929 97.0398 62.6775 96.9244 62.8852C96.809 63.0698 96.7167 63.2775 96.6244 63.4852H99.6014Z" fill="white"/>
<path d="M100.753 64.0851C100.615 64.1081 100.476 64.0158 100.453 63.8774C100.453 63.8543 100.453 63.8312 100.453 63.8081C100.453 63.7158 100.476 63.6235 100.522 63.5543C100.592 63.5081 100.661 63.4851 100.753 63.4851H101.238C101.33 63.4851 101.445 63.4851 101.538 63.462C101.607 63.462 101.676 63.4389 101.745 63.3928C101.792 63.3466 101.838 63.3004 101.861 63.2312C101.884 63.1389 101.907 63.0466 101.907 62.9543V61.2928H102.507V62.7005C102.507 62.8158 102.507 62.9312 102.53 63.0235C102.553 63.1158 102.576 63.2081 102.622 63.2774C102.669 63.3466 102.738 63.3928 102.83 63.4389C102.922 63.4851 103.038 63.5081 103.153 63.5081C103.292 63.4851 103.43 63.5774 103.453 63.7158C103.453 63.7389 103.453 63.762 103.453 63.7851C103.453 63.8774 103.43 63.9697 103.384 64.0389C103.315 64.0851 103.245 64.1081 103.153 64.1081C102.992 64.1081 102.83 64.062 102.692 63.9697C102.576 63.8774 102.507 63.762 102.461 63.6235C102.392 63.8081 102.23 63.9466 102.045 64.0158C101.815 64.0851 101.584 64.1081 101.353 64.1081H100.753V64.0851ZM101.838 60.0466C101.838 59.9543 101.884 59.8389 101.953 59.7697C102.022 59.7005 102.115 59.6543 102.23 59.6543C102.438 59.6543 102.622 59.8158 102.622 60.0466C102.622 60.1389 102.576 60.2543 102.507 60.3235C102.438 60.3928 102.345 60.4389 102.23 60.4389C102.022 60.4389 101.838 60.2543 101.838 60.0466Z" fill="white"/>
<path d="M107.631 64.0845C107.469 64.0845 107.308 64.0615 107.146 63.9691C107.008 63.8768 106.893 63.7615 106.823 63.5999V63.5768C106.731 63.7615 106.593 63.8999 106.408 64.0153C106.2 64.1307 105.969 64.1768 105.739 64.1768C105.508 64.1768 105.277 64.1307 105.046 64.0615C104.793 63.9691 104.539 63.8307 104.331 63.6691C104.285 63.7615 104.216 63.8307 104.146 63.8999C104.077 63.9461 104.008 63.9922 103.939 64.0153C103.869 64.0384 103.777 64.0615 103.708 64.0615C103.616 64.0615 103.546 64.0845 103.454 64.0615H103.131C102.993 64.0845 102.854 63.9922 102.831 63.8538C102.831 63.8307 102.831 63.8076 102.831 63.7845C102.831 63.6922 102.854 63.5999 102.9 63.5307C102.969 63.4845 103.039 63.4615 103.131 63.4615H103.431C103.5 63.4615 103.546 63.4615 103.616 63.4384C103.685 63.4153 103.754 63.3922 103.8 63.3461C103.869 63.2999 103.939 63.2307 103.985 63.1384C104.054 63.023 104.123 62.9076 104.169 62.7922C104.262 62.5384 104.377 62.2845 104.516 62.0307C104.608 61.8691 104.746 61.7076 104.885 61.5922C105 61.4999 105.139 61.4307 105.277 61.3845C105.416 61.3615 105.531 61.3384 105.669 61.3384C105.854 61.3384 106.016 61.3615 106.177 61.4538C106.339 61.523 106.477 61.6153 106.593 61.7538C106.708 61.8922 106.8 62.0538 106.869 62.2153C106.939 62.3999 106.962 62.6076 106.962 62.8153C106.962 62.8384 106.962 62.8845 106.962 62.9076C106.962 62.9307 106.962 62.9768 106.962 62.9999C107.008 63.1384 107.077 63.2538 107.169 63.3461C107.308 63.4384 107.446 63.4845 107.608 63.4615C107.746 63.4384 107.885 63.5307 107.908 63.6691C107.908 63.6922 107.908 63.7153 107.908 63.7384C107.908 63.8307 107.885 63.923 107.839 63.9922C107.793 64.0845 107.7 64.0845 107.631 64.0845ZM106.385 62.7922C106.385 62.6768 106.362 62.5845 106.339 62.4691C106.316 62.3768 106.269 62.2845 106.2 62.1922C106.131 62.123 106.062 62.0538 105.969 62.0076C105.877 61.9615 105.762 61.9384 105.669 61.9384C105.462 61.9384 105.254 62.0538 105.116 62.2153C104.885 62.4922 104.723 62.8153 104.631 63.1615C104.793 63.2768 104.977 63.3691 105.162 63.4384C105.346 63.5076 105.531 63.5307 105.716 63.5538C105.9 63.5538 106.062 63.5076 106.2 63.3691C106.316 63.2307 106.408 62.9999 106.385 62.7922Z" fill="white"/>
<path d="M107.631 64.0845C107.493 64.1076 107.354 64.0153 107.331 63.8768C107.331 63.8538 107.331 63.8307 107.331 63.8076C107.331 63.7153 107.354 63.623 107.4 63.5538C107.47 63.5076 107.539 63.4845 107.631 63.4845H108.762V58.8691H109.362V64.0845H107.631Z" fill="white"/>
<path d="M110.999 58.869V64.0844H110.399V58.869H110.999Z" fill="white"/>
<path d="M1.06055 68.3774H1.77593L4.47593 72.5313H4.49901V68.3774H5.14517V73.4774H4.4067L1.72978 69.3928H1.7067V73.5005H1.06055V68.3774Z" fill="white"/>
<path d="M10.1318 73.4765C9.99336 73.5457 9.8549 73.5919 9.69336 73.5688C9.5549 73.5688 9.41644 73.5227 9.32413 73.4304C9.20875 73.315 9.16259 73.1534 9.18567 72.9919C9.02413 73.1765 8.83952 73.3381 8.60875 73.4304C8.37798 73.5227 8.14721 73.5688 7.89336 73.5688C7.73182 73.5688 7.57028 73.5457 7.43182 73.5227C7.29336 73.4996 7.1549 73.4304 7.03951 73.3381C6.92413 73.2457 6.83182 73.1534 6.78567 73.015C6.71644 72.8765 6.69336 72.6919 6.69336 72.5304C6.69336 72.3457 6.71644 72.1842 6.80874 72.0227C6.87797 71.8842 6.97028 71.7919 7.08567 71.6996C7.20105 71.6073 7.33951 71.5611 7.47798 71.515C7.61644 71.4688 7.77798 71.4227 7.93951 71.3996C8.10105 71.3765 8.26259 71.3534 8.42413 71.3304C8.56259 71.3073 8.70105 71.2842 8.81644 71.2611C8.90875 71.2381 9.00105 71.1919 9.09336 71.1227C9.16259 71.0534 9.20875 70.9611 9.18567 70.8688C9.18567 70.7534 9.16259 70.6381 9.11644 70.5457C9.07029 70.4765 9.00105 70.4073 8.93182 70.3611C8.83951 70.315 8.77028 70.2919 8.67798 70.2688C8.58567 70.2457 8.49336 70.2457 8.37798 70.2457C8.14721 70.2457 7.93951 70.2919 7.73182 70.3842C7.54721 70.4996 7.43182 70.7304 7.4549 70.9381H6.8549C6.8549 70.7304 6.90105 70.5457 6.99336 70.3611C7.08567 70.1996 7.20105 70.0842 7.33951 69.9688C7.50105 69.8765 7.66259 69.8073 7.82413 69.7611C8.00875 69.715 8.21644 69.6919 8.42413 69.6919C8.58567 69.6919 8.74721 69.715 8.93182 69.7381C9.09336 69.7611 9.23182 69.8073 9.37029 69.8765C9.50875 69.9457 9.62413 70.0611 9.69336 70.1996C9.78567 70.3611 9.83182 70.5457 9.80875 70.7304V72.6227C9.80875 72.7381 9.80875 72.8304 9.83182 72.9457C9.8549 73.015 9.90105 73.038 9.99336 73.038C10.0626 73.038 10.1318 73.015 10.178 72.9919L10.1318 73.4765ZM9.13952 71.5842C9.07028 71.6304 9.00105 71.6534 8.93182 71.6765C8.83951 71.6996 8.74721 71.7227 8.6549 71.7457C8.56259 71.7688 8.44721 71.7688 8.3549 71.7919C8.26259 71.815 8.14721 71.815 8.0549 71.8381C7.96259 71.8611 7.87028 71.8842 7.77798 71.9073C7.68567 71.9304 7.61644 71.9765 7.54721 72.0227C7.47798 72.0688 7.43182 72.1381 7.38567 72.2073C7.33951 72.2996 7.31644 72.3919 7.31644 72.4842C7.31644 72.5765 7.33951 72.6688 7.38567 72.7381C7.43182 72.8073 7.47798 72.8534 7.54721 72.8996C7.61644 72.9457 7.68567 72.9688 7.77798 72.9919C7.87028 73.015 7.96259 73.015 8.0549 73.015C8.23951 73.015 8.40105 72.9919 8.56259 72.9227C8.70105 72.8765 8.81644 72.8073 8.90875 72.715C9.00105 72.6457 9.07029 72.5534 9.11644 72.4381C9.16259 72.3457 9.18567 72.2534 9.18567 72.1611L9.13952 71.5842Z" fill="white"/>
<path d="M12.254 69.7848H12.9924V70.3156H12.254V72.6233C12.254 72.6694 12.254 72.7387 12.277 72.7848C12.277 72.831 12.3001 72.854 12.3463 72.8771C12.3924 72.9002 12.4386 72.9233 12.4847 72.9233C12.554 72.9233 12.6463 72.9464 12.7155 72.9233H12.9924V73.454H12.5309C12.3924 73.454 12.254 73.454 12.1155 73.431C12.0232 73.4079 11.9309 73.3848 11.8386 73.3156C11.7694 73.2464 11.7232 73.1771 11.677 73.0848C11.6309 72.9464 11.6309 72.8079 11.6309 72.6694V70.3156H11.0078V69.7848H11.6309V68.6771H12.254V69.7848Z" fill="white"/>
<path d="M15.023 69.139H14.423V68.4005H15.023V69.139ZM14.423 69.7851H15.023V73.4774H14.423V69.7851Z" fill="white"/>
<path d="M16.4774 71.6543C16.4774 71.4004 16.5235 71.1466 16.5927 70.8927C16.662 70.6619 16.7774 70.4543 16.9389 70.2696C17.1004 70.085 17.285 69.9466 17.4927 69.8543C18.0004 69.6466 18.5543 69.6466 19.0389 69.8543C19.2466 69.9466 19.4543 70.085 19.5927 70.2696C19.7543 70.4543 19.8697 70.6619 19.9389 70.8927C20.0081 71.1466 20.0543 71.4004 20.0543 71.6543C20.0543 71.9081 20.0081 72.1619 19.9389 72.4158C19.8697 72.6466 19.7543 72.8543 19.5927 73.0158C19.4312 73.2004 19.2466 73.3389 19.0389 73.4312C18.5312 73.6389 17.9774 73.6389 17.4927 73.4312C17.285 73.3389 17.0774 73.2004 16.9389 73.0158C16.7774 72.8312 16.662 72.6235 16.5927 72.4158C16.5235 72.1619 16.4774 71.9081 16.4774 71.6543ZM17.1466 71.6543C17.1466 71.8619 17.1697 72.0696 17.2389 72.2543C17.285 72.4158 17.3774 72.5543 17.4927 72.6927C17.585 72.8081 17.7235 72.9004 17.862 72.9696C18.1389 73.085 18.462 73.085 18.762 72.9696C18.9004 72.9004 19.0389 72.8081 19.1312 72.6927C19.2466 72.5543 19.3158 72.4158 19.3851 72.2543C19.5004 71.8619 19.5004 71.4466 19.3851 71.0543C19.3389 70.8927 19.2466 70.7543 19.1312 70.6158C19.0389 70.5004 18.9004 70.4081 18.762 70.3389C18.485 70.2235 18.162 70.2235 17.862 70.3389C17.7235 70.4081 17.585 70.5004 17.4927 70.6158C17.3774 70.7543 17.3081 70.8927 17.2389 71.0543C17.1697 71.2389 17.1235 71.4466 17.1466 71.6543Z" fill="white"/>
<path d="M21.5068 69.7846H22.0837V70.3615H22.1068C22.2222 70.1538 22.3837 69.9692 22.6145 69.8538C22.8222 69.7384 23.076 69.6923 23.3299 69.6923C23.5375 69.6923 23.7452 69.7153 23.9299 69.7846C24.0914 69.8538 24.2068 69.9461 24.3222 70.0615C24.4145 70.1769 24.5068 70.3384 24.5299 70.4769C24.576 70.6615 24.5991 70.8461 24.5991 71.0307V73.4538H23.9991V70.9384C23.9991 70.7307 23.9299 70.5461 23.7914 70.3846C23.6529 70.2461 23.4452 70.1769 23.2375 70.1769C23.076 70.1769 22.9145 70.2 22.7529 70.2692C22.6375 70.3153 22.5222 70.4076 22.4299 70.5C22.3375 70.6153 22.2683 70.7307 22.2222 70.8692C22.176 71.0076 22.1529 71.1692 22.1529 71.3307V73.4307H21.5299V69.7846H21.5068Z" fill="white"/>
<path d="M29.4929 73.4769C29.3545 73.5461 29.216 73.5923 29.0545 73.5692C28.916 73.5692 28.7775 73.523 28.6852 73.4307C28.5698 73.3153 28.5237 73.1538 28.5468 72.9923C28.3852 73.1769 28.2006 73.3384 27.9698 73.4307C27.7391 73.523 27.5083 73.5692 27.2545 73.5692C27.0929 73.5692 26.9314 73.5461 26.7698 73.523C26.6314 73.5 26.4929 73.4307 26.3775 73.3384C26.2621 73.2461 26.1698 73.1538 26.1237 73.0153C26.0544 72.8769 26.0314 72.6923 26.0314 72.5307C26.0314 72.3461 26.0544 72.1846 26.1468 72.023C26.216 71.8846 26.3083 71.7923 26.4237 71.7C26.5391 71.6076 26.6775 71.5615 26.816 71.5153C26.9775 71.4692 27.116 71.423 27.2775 71.4C27.4391 71.3769 27.6006 71.3538 27.7621 71.3307C27.9006 71.3076 28.0391 71.2846 28.1545 71.2615C28.2468 71.2384 28.3391 71.1923 28.4314 71.123C28.5006 71.0538 28.5468 70.9615 28.5237 70.8692C28.5237 70.7538 28.5006 70.6384 28.4545 70.5461C28.4083 70.4769 28.3391 70.4077 28.2698 70.3615C28.1775 70.3153 28.1083 70.2923 27.9929 70.2692C27.9006 70.2461 27.8083 70.2461 27.6929 70.2461C27.4621 70.2461 27.2545 70.2923 27.0468 70.3846C26.8621 70.5 26.7468 70.7077 26.7698 70.9384H26.1698C26.1698 70.7307 26.216 70.5461 26.3083 70.3615C26.4006 70.2 26.516 70.0846 26.6545 69.9692C26.816 69.8769 26.9775 69.8076 27.1391 69.7615C27.3237 69.7153 27.5314 69.6923 27.7391 69.6923C27.9006 69.6923 28.0621 69.7153 28.2468 69.7384C28.4083 69.7615 28.5468 69.8076 28.6852 69.8769C28.8237 69.9461 28.9391 70.0615 29.0083 70.2C29.1006 70.3615 29.1468 70.5461 29.1237 70.7307V72.623C29.1237 72.7384 29.1237 72.8307 29.1468 72.9461C29.1698 73.0153 29.216 73.0384 29.3083 73.0384C29.3775 73.0384 29.4468 73.0153 29.4929 72.9923V73.4769ZM28.5006 71.5846C28.4314 71.6307 28.3621 71.6538 28.2929 71.6769C28.2006 71.7 28.1083 71.723 28.016 71.7461C27.9237 71.7692 27.8314 71.7692 27.716 71.7923C27.6006 71.8153 27.5083 71.8153 27.416 71.8384C27.3237 71.8615 27.2314 71.8846 27.1391 71.9076C27.0468 71.9307 26.9775 71.9769 26.9083 72.023C26.8391 72.0692 26.7929 72.1384 26.7468 72.2077C26.7006 72.3 26.6775 72.3923 26.6775 72.4846C26.6775 72.5769 26.7006 72.6692 26.7468 72.7384C26.7929 72.8076 26.8391 72.8538 26.9083 72.9C26.9775 72.9461 27.0468 72.9692 27.1391 72.9923C27.2314 73.0153 27.3237 73.0153 27.416 73.0153C27.6006 73.0153 27.7621 72.9923 27.9237 72.923C28.0621 72.8769 28.1775 72.8076 28.2698 72.7153C28.3621 72.6461 28.4314 72.5538 28.4775 72.4384C28.5237 72.3461 28.5468 72.2538 28.5468 72.1615L28.5006 71.5846Z" fill="white"/>
<path d="M30.8074 68.3773H31.4074V73.4773H30.8074V68.3773Z" fill="white"/>
<path d="M37.2694 68.3774H38.031L40.0156 73.4774H39.254L38.7002 71.9313H36.531L35.954 73.4774H35.2617L37.2694 68.3774ZM36.7617 71.3774H38.4925L37.6386 69.0005L36.7617 71.3774Z" fill="white"/>
<path d="M44.1923 73.5H43.6384V72.9231H43.6154C43.5 73.1308 43.3384 73.3154 43.1077 73.4308C42.9 73.5462 42.6461 73.5924 42.3923 73.5924C42.1846 73.5924 41.9769 73.5693 41.7923 73.5C41.6307 73.4308 41.5154 73.3385 41.4 73.2231C41.3077 73.1077 41.2154 72.9462 41.1923 72.7847C41.1461 72.6001 41.123 72.4154 41.123 72.2308V69.8077H41.723V72.3231C41.7 72.7154 41.9769 73.0385 42.3461 73.0616C42.3923 73.0616 42.4154 73.0616 42.4615 73.0616C42.623 73.0616 42.7846 73.0385 42.9461 72.9693C43.0846 72.9231 43.2 72.8308 43.2923 72.7154C43.3846 72.6 43.4538 72.4847 43.5 72.3462C43.5461 72.2077 43.5692 72.0462 43.5692 71.8847V69.7847H44.1692L44.1923 73.5Z" fill="white"/>
<path d="M48.3465 70.9844C48.2772 70.5229 47.8849 70.1998 47.4234 70.246C47.2388 70.246 47.0311 70.2921 46.8696 70.3614C46.7311 70.4306 46.6157 70.546 46.5234 70.6845C46.4311 70.8229 46.3619 70.9845 46.3388 71.146C46.2926 71.3306 46.2926 71.5152 46.2926 71.6768C46.2926 71.8383 46.3157 72.0229 46.3619 72.1844C46.408 72.346 46.4542 72.4844 46.5465 72.6229C46.6388 72.7383 46.7542 72.8537 46.8696 72.9229C47.0311 72.9921 47.1926 73.0383 47.3772 73.0383C47.6311 73.0614 47.8849 72.9691 48.0696 72.8075C48.2542 72.6229 48.3696 72.3921 48.3926 72.1383H49.0157C48.9696 72.5306 48.808 72.8998 48.5311 73.1768C48.2311 73.4306 47.8157 73.5691 47.4234 73.546C47.1696 73.546 46.9157 73.4998 46.6849 73.4075C46.4772 73.3152 46.2926 73.1768 46.1311 73.0152C45.9926 72.8306 45.8772 72.646 45.808 72.4152C45.7388 72.1614 45.6926 71.9075 45.6926 71.6537C45.6926 71.3998 45.7388 71.1229 45.808 70.8691C45.8772 70.6383 45.9926 70.4306 46.1311 70.246C46.2696 70.0614 46.4542 69.9229 46.6849 69.8306C46.9157 69.7152 47.1926 69.6691 47.4465 69.6691C47.6542 69.6691 47.8388 69.6921 48.0465 69.7383C48.2311 69.7844 48.3926 69.8537 48.5311 69.9691C48.6696 70.0844 48.7849 70.1998 48.8772 70.3614C48.9696 70.546 49.0388 70.7306 49.0388 70.9383H48.3465V70.9844Z" fill="white"/>
<path d="M51.2303 69.7847H51.9688V70.3155H51.2303V72.6232C51.2303 72.6693 51.2303 72.7385 51.2534 72.7847C51.2534 72.8309 51.2996 72.8539 51.3227 72.877C51.3688 72.9001 51.415 72.9232 51.4611 72.9232C51.5303 72.9232 51.6227 72.9462 51.6919 72.9232H51.9688V73.4539H51.5073C51.3688 73.4539 51.2303 73.4539 51.0919 73.4308C50.9996 73.4078 50.9073 73.3847 50.815 73.3155C50.7457 73.2462 50.6996 73.177 50.6534 73.0847C50.6073 72.9462 50.6073 72.8078 50.6073 72.6693V70.3155H49.9842V69.7847H50.6073V68.677H51.2073L51.2303 69.7847Z" fill="white"/>
<path d="M53.9992 69.139H53.3992V68.4005H53.9992V69.139ZM53.3992 69.7851H53.9992V73.4774H53.3992V69.7851Z" fill="white"/>
<path d="M55.4778 71.6543C55.4778 71.4004 55.5239 71.1466 55.5932 70.8927C55.6624 70.6619 55.7778 70.4543 55.9393 70.2696C56.1009 70.085 56.2855 69.9466 56.4932 69.8543C57.0009 69.6466 57.5547 69.6466 58.0393 69.8543C58.247 69.9466 58.4547 70.085 58.5932 70.2696C58.7547 70.4543 58.8701 70.6619 58.9393 70.8927C59.0086 71.1466 59.0547 71.4004 59.0547 71.6543C59.0547 71.9081 59.0086 72.1619 58.9393 72.4158C58.8701 72.6466 58.7547 72.8543 58.5932 73.0158C58.4316 73.2004 58.247 73.3389 58.0393 73.4312C57.5316 73.6389 56.9778 73.6389 56.4932 73.4312C56.2855 73.3389 56.0778 73.2004 55.9393 73.0158C55.7778 72.8312 55.6624 72.6235 55.5932 72.4158C55.5009 72.1619 55.4778 71.9081 55.4778 71.6543ZM56.1239 71.6543C56.1239 71.8619 56.147 72.0696 56.2162 72.2543C56.2624 72.4158 56.3547 72.5543 56.4701 72.6927C56.5624 72.8081 56.7009 72.9004 56.8393 72.9696C57.1162 73.085 57.4393 73.085 57.7393 72.9696C57.8778 72.9004 58.0162 72.8081 58.1086 72.6927C58.2239 72.5543 58.2932 72.4158 58.3624 72.2543C58.4778 71.8619 58.4778 71.4466 58.3624 71.0543C58.3162 70.8927 58.2239 70.7543 58.1086 70.6158C58.0162 70.5004 57.8778 70.4081 57.7393 70.3389C57.4624 70.2235 57.1393 70.2235 56.8393 70.3389C56.7009 70.4081 56.5624 70.5004 56.4701 70.6158C56.3547 70.7543 56.2855 70.8927 56.2162 71.0543C56.147 71.2389 56.1009 71.4466 56.1239 71.6543Z" fill="white"/>
<path d="M60.4844 69.7842H61.0613V70.3611H61.0844C61.1998 70.1534 61.3613 69.9688 61.569 69.8534C61.7767 69.7381 62.0305 69.6919 62.2844 69.6919C62.4921 69.6919 62.6998 69.715 62.8844 69.7842C63.0459 69.8534 63.1613 69.9457 63.2767 70.0611C63.369 70.1765 63.4613 70.3381 63.4844 70.4765C63.5305 70.6611 63.5536 70.8457 63.5536 71.0304V73.4534H62.9536V70.9381C62.9767 70.5457 62.6998 70.2227 62.3075 70.1996C62.2613 70.1996 62.2382 70.1996 62.1921 70.1996C62.0305 70.1996 61.869 70.2227 61.7075 70.2919C61.569 70.338 61.4536 70.4304 61.3613 70.5227C61.269 70.638 61.1998 70.7534 61.1536 70.8919C61.1075 71.0304 61.0844 71.1919 61.0844 71.3534V73.4534H60.4844V69.7842Z" fill="white"/>
<path d="M65.8389 69.1388H65.2389V68.4004H65.8389V69.1388ZM65.2158 69.785H65.8158V73.4773H65.2158V69.785Z" fill="white"/>
<path d="M67.4996 69.7842H68.0766V70.3611H68.0996C68.215 70.1534 68.3766 69.9688 68.5843 69.8534C68.792 69.7381 69.0458 69.6919 69.2996 69.6919C69.5073 69.6919 69.715 69.715 69.8996 69.7842C70.0612 69.8534 70.1766 69.9457 70.292 70.0611C70.3843 70.1765 70.4766 70.3381 70.4996 70.4765C70.5458 70.6611 70.5689 70.8457 70.5689 71.0304V73.4534H69.9458V70.9381C69.9458 70.7304 69.8766 70.5457 69.7381 70.3842C69.5996 70.2457 69.392 70.1765 69.1843 70.1765C69.0227 70.1765 68.8612 70.1996 68.6996 70.2688C68.5612 70.315 68.4458 70.4073 68.3535 70.4996C68.2612 70.615 68.192 70.7304 68.1458 70.8688C68.0996 71.0073 68.0766 71.1688 68.0766 71.3304V73.4304H67.4766L67.4996 69.7842Z" fill="white"/>
<path d="M75.3929 73.1769C75.3929 73.7769 75.2545 74.2384 74.9775 74.5384C74.7006 74.8384 74.2622 74.9999 73.6852 74.9999C73.5006 74.9999 73.3391 74.9769 73.1545 74.9538C72.9929 74.9076 72.8083 74.8615 72.6698 74.7692C72.5314 74.6769 72.3929 74.5615 72.3006 74.423C72.2083 74.2615 72.1391 74.0999 72.1391 73.9153H72.7391C72.7391 74.0076 72.7852 74.123 72.8545 74.1923C72.9237 74.2615 72.9929 74.3307 73.0852 74.3769C73.1775 74.423 73.2929 74.4692 73.3852 74.4923C73.5006 74.5153 73.5929 74.5153 73.7083 74.5153C73.8929 74.5153 74.0545 74.4923 74.216 74.3999C74.3545 74.3307 74.4699 74.2384 74.5622 74.123C74.6545 73.9846 74.7237 73.8461 74.7699 73.6846C74.816 73.4999 74.8391 73.3153 74.8391 73.1076V72.8538H74.7929C74.7468 72.9692 74.6775 73.0615 74.5852 73.1538C74.4929 73.2461 74.4006 73.3153 74.3083 73.3615C74.1929 73.4076 74.1006 73.4538 73.9852 73.4769C73.8699 73.4999 73.7545 73.523 73.6391 73.523C73.3852 73.523 73.1545 73.4769 72.9237 73.3846C72.716 73.2923 72.5545 73.1538 72.416 72.9692C72.2775 72.7846 72.1622 72.5999 72.0929 72.3692C72.0237 72.1384 71.9775 71.8846 71.9775 71.6538C71.9775 71.423 72.0006 71.1923 72.0699 70.9846C72.116 70.7538 72.2314 70.5461 72.3468 70.3615C72.4852 70.1769 72.6699 70.0153 72.8775 69.9C73.1314 69.7615 73.4083 69.7153 73.6852 69.7153C73.916 69.7153 74.1237 69.7615 74.3314 69.8769C74.5391 69.9692 74.7006 70.1307 74.7929 70.3384V69.8076H75.3699L75.3929 73.1769ZM73.6852 72.9923C74.0314 73.0153 74.3545 72.8307 74.5391 72.5307C74.6314 72.3923 74.7006 72.2307 74.7237 72.0692C74.7699 71.9076 74.7929 71.723 74.7929 71.5615C74.7929 71.3999 74.7698 71.2384 74.7468 71.0769C74.7237 70.9153 74.6545 70.7769 74.5622 70.6384C74.4699 70.523 74.3775 70.4076 74.2391 70.3384C74.1006 70.2692 73.916 70.223 73.7545 70.223C73.5699 70.223 73.4083 70.2461 73.2468 70.3384C73.1083 70.4076 72.9929 70.4999 72.9006 70.6384C72.8083 70.7769 72.7391 70.9153 72.716 71.0769C72.6699 71.2384 72.6468 71.423 72.6468 71.5846C72.6468 71.7461 72.6698 71.9307 72.6929 72.0923C72.716 72.2538 72.7852 72.4153 72.8775 72.5538C72.9468 72.6923 73.0622 72.8076 73.2006 72.8769C73.3391 72.9692 73.5006 73.0153 73.6852 72.9923Z" fill="white"/>
<path d="M79.8232 68.3774H82.0616C82.477 68.3543 82.9155 68.4927 83.2386 68.7697C83.7693 69.4158 83.7693 70.362 83.2386 71.0081C82.9155 71.285 82.5001 71.4466 82.0616 71.4004H80.4924V73.5004H79.8232V68.3774ZM80.5155 70.8235H81.854C82.154 70.8466 82.454 70.7774 82.7078 70.5927C83.054 70.2004 83.054 69.6004 82.7078 69.1851C82.454 69.0004 82.154 68.9312 81.854 68.9543H80.5155V70.8235Z" fill="white"/>
<path d="M85.1084 68.3774H85.7084V73.4774H85.1084V68.3774Z" fill="white"/>
<path d="M90.6695 73.4765C90.5311 73.5457 90.3926 73.5919 90.2311 73.5688C90.0926 73.5688 89.9542 73.5227 89.8619 73.4304C89.7465 73.315 89.7003 73.1534 89.7234 72.9919C89.5619 73.1765 89.3772 73.3381 89.1465 73.4304C88.9157 73.5227 88.6849 73.5688 88.4311 73.5688C88.2696 73.5688 88.108 73.5457 87.9465 73.5227C87.808 73.4996 87.6695 73.4304 87.5542 73.3381C87.4388 73.2457 87.3465 73.1534 87.3003 73.015C87.2311 72.8765 87.208 72.6919 87.208 72.5304C87.208 72.3457 87.2311 72.1842 87.3234 72.0227C87.3926 71.8842 87.4849 71.7919 87.6003 71.6996C87.7157 71.6073 87.8542 71.5611 87.9926 71.515C88.1311 71.4688 88.2926 71.4227 88.4542 71.3996C88.6157 71.3765 88.7772 71.3534 88.9388 71.3304C89.0772 71.3073 89.2157 71.2842 89.3311 71.2611C89.4234 71.2381 89.5157 71.1919 89.608 71.1227C89.6772 71.0534 89.7234 70.9611 89.7003 70.8688C89.7003 70.7534 89.6772 70.6381 89.6311 70.5457C89.5849 70.4765 89.5157 70.4073 89.4465 70.3611C89.3542 70.315 89.2849 70.2919 89.1926 70.2688C89.1003 70.2457 89.008 70.2457 88.8926 70.2457C88.6619 70.2457 88.4542 70.2919 88.2465 70.3842C88.0619 70.4996 87.9465 70.7073 87.9696 70.9381H87.3695C87.3695 70.7304 87.4157 70.5457 87.508 70.3611C87.6003 70.1996 87.7157 70.0842 87.8542 69.9688C88.0157 69.8765 88.1772 69.8073 88.3388 69.7611C88.5234 69.715 88.7311 69.6919 88.9157 69.6919C89.0772 69.6919 89.2388 69.715 89.4003 69.7381C89.5619 69.7611 89.7003 69.8073 89.8388 69.8765C89.9772 69.9457 90.0926 70.0611 90.1619 70.1996C90.2542 70.3611 90.3003 70.5457 90.2772 70.7304V72.6227C90.2772 72.7381 90.2772 72.8304 90.3003 72.9457C90.3234 73.015 90.3696 73.038 90.4619 73.038C90.5311 73.038 90.6003 73.015 90.6465 72.9919V73.4765H90.6695ZM89.6772 71.5842C89.608 71.6304 89.5388 71.6534 89.4696 71.6765C89.3772 71.6996 89.2849 71.7227 89.1926 71.7457C89.1003 71.7688 88.9849 71.7688 88.8926 71.7919C88.8003 71.815 88.6849 71.815 88.5696 71.8381C88.4772 71.8611 88.3849 71.8842 88.2926 71.9073C88.2003 71.9304 88.1311 71.9765 88.0619 72.0227C87.9926 72.0688 87.9465 72.1381 87.9003 72.2073C87.8542 72.2996 87.8311 72.3919 87.8311 72.4842C87.8311 72.5765 87.8542 72.6688 87.9003 72.7381C87.9465 72.8073 87.9926 72.8534 88.0619 72.8996C88.1311 72.9457 88.2003 72.9688 88.2926 72.9919C88.3849 73.015 88.4772 73.015 88.5696 73.015C88.7542 73.015 88.9157 72.9919 89.0772 72.9227C89.2157 72.8765 89.3311 72.8073 89.4234 72.715C89.5157 72.6457 89.5849 72.5534 89.6311 72.4381C89.6772 72.3457 89.7003 72.2534 89.7003 72.1611L89.6772 71.5842Z" fill="white"/>
<path d="M92.7921 69.7849H93.5305V70.3157H92.7921V72.6234C92.7921 72.6696 92.7921 72.7388 92.8151 72.7849C92.8151 72.8311 92.8613 72.8542 92.8844 72.8772C92.9305 72.9003 92.9767 72.9234 93.0228 72.9234C93.0921 72.9234 93.1844 72.9465 93.2536 72.9234H93.5305V73.4542H93.069C92.9305 73.4542 92.7921 73.4542 92.6536 73.4311C92.5613 73.408 92.469 73.3849 92.3767 73.3157C92.3074 73.2465 92.2613 73.1772 92.2151 73.0849C92.169 72.9465 92.169 72.808 92.169 72.6696V70.3157H91.5459V69.7849H92.169V68.6772H92.769V69.7849H92.7921Z" fill="white"/>
<path d="M95.169 70.3387H94.5459V69.8079H95.169V69.2541C95.1459 69.0003 95.2382 68.7464 95.4228 68.5618C95.6305 68.4003 95.9074 68.3079 96.1844 68.331C96.2536 68.331 96.3228 68.331 96.3921 68.3541C96.4613 68.3541 96.5305 68.3772 96.5997 68.4003V68.931C96.5536 68.9079 96.4844 68.9079 96.4382 68.8849C96.392 68.8849 96.3228 68.8849 96.2767 68.8849C96.1613 68.8849 96.0459 68.908 95.9305 68.9772C95.8382 69.0695 95.7921 69.1849 95.8151 69.3003V69.8079H96.5305V70.3387H95.8151V73.5003H95.2151L95.169 70.3387Z" fill="white"/>
<path d="M97.5461 71.6543C97.5461 71.4004 97.5923 71.1466 97.6615 70.8927C97.7308 70.6619 97.8461 70.4543 98.0077 70.2696C98.1692 70.085 98.3538 69.9466 98.5615 69.8543C99.0692 69.6466 99.6231 69.6466 100.108 69.8543C100.315 69.9466 100.523 70.085 100.685 70.2696C100.846 70.4543 100.962 70.6619 101.031 70.8927C101.1 71.1466 101.146 71.4004 101.146 71.6543C101.146 71.9081 101.1 72.1619 101.031 72.4158C100.962 72.6466 100.846 72.8543 100.685 73.0158C100.523 73.2004 100.338 73.3389 100.108 73.4312C99.6 73.6389 99.0461 73.6389 98.5615 73.4312C98.3538 73.3389 98.1461 73.2004 98.0077 73.0158C97.8461 72.8312 97.7308 72.6235 97.6615 72.4158C97.5923 72.1619 97.5461 71.9081 97.5461 71.6543ZM98.1923 71.6543C98.1923 71.8619 98.2154 72.0696 98.2846 72.2543C98.3308 72.4158 98.4231 72.5543 98.5384 72.6927C98.6308 72.8081 98.7692 72.9004 98.9077 72.9696C99.1846 73.085 99.5077 73.085 99.8077 72.9696C99.9461 72.9004 100.085 72.8081 100.177 72.6927C100.292 72.5773 100.362 72.4158 100.431 72.2543C100.546 71.8619 100.546 71.4466 100.431 71.0543C100.385 70.8927 100.292 70.7312 100.177 70.6158C100.085 70.5004 99.9461 70.4081 99.8077 70.3389C99.5308 70.2235 99.2077 70.2235 98.9077 70.3389C98.7692 70.4081 98.6308 70.5004 98.5384 70.6158C98.4231 70.7543 98.3538 70.8927 98.2846 71.0543C98.2154 71.2389 98.1923 71.4466 98.1923 71.6543Z" fill="white"/>
<path d="M102.555 69.7851H103.132V70.5697H103.155C103.27 70.2928 103.455 70.0851 103.709 69.9005C103.962 69.739 104.239 69.6697 104.516 69.6928V70.339C104.309 70.339 104.101 70.362 103.893 70.4313C103.732 70.5005 103.593 70.5928 103.478 70.7313C103.362 70.8697 103.293 71.0313 103.247 71.1928C103.201 71.4005 103.178 71.6082 103.178 71.8159V73.4543H102.578V69.7851H102.555Z" fill="white"/>
<path d="M105.67 69.7846H106.247V70.3384H106.27C106.662 69.7384 107.447 69.5307 108.093 69.8538C108.278 69.9461 108.416 70.1307 108.485 70.3384C108.601 70.1538 108.785 69.9923 108.97 69.8769C109.178 69.7615 109.408 69.7153 109.639 69.7153C109.801 69.7153 109.985 69.7384 110.147 69.7846C110.285 69.8307 110.424 69.8769 110.539 69.9692C110.655 70.0615 110.724 70.1769 110.793 70.2923C110.862 70.4538 110.885 70.6153 110.885 70.7769V73.4999H110.285V71.0769C110.285 70.9615 110.285 70.8692 110.262 70.7538C110.239 70.6615 110.216 70.5692 110.147 70.4999C110.101 70.4307 110.008 70.3615 109.916 70.3153C109.801 70.2692 109.685 70.2461 109.547 70.2461C109.293 70.223 109.039 70.3153 108.855 70.4999C108.67 70.6846 108.578 70.9384 108.601 71.1923V73.4999H108.001V71.0769C108.001 70.9615 108.001 70.8461 107.978 70.7538C107.955 70.6615 107.931 70.5692 107.862 70.4999C107.816 70.4307 107.724 70.3615 107.655 70.3153C107.539 70.2692 107.424 70.2461 107.308 70.2461C107.147 70.2461 106.985 70.2692 106.847 70.3615C106.731 70.4307 106.639 70.523 106.547 70.6153C106.478 70.7076 106.408 70.823 106.362 70.9384C106.339 71.0307 106.316 71.123 106.316 71.2153V73.523H105.716L105.67 69.7846Z" fill="white"/>
<path d="M2.21532 47.1C2.21532 47.6077 2.35378 48.0923 2.6307 48.5077C3.09224 49.1769 3.89994 49.5231 5.05378 49.5231C5.5384 49.5231 6.02302 49.4539 6.48455 49.3154C7.31532 49.0385 7.73071 48.5077 7.73071 47.7692C7.73071 47.2154 7.54609 46.8231 7.19994 46.5692C6.69225 46.2692 6.11532 46.0615 5.5384 45.9692L4.15378 45.6462C3.25378 45.4385 2.60763 45.2077 2.2384 44.9769C1.59224 44.5615 1.22301 43.8231 1.26916 43.0615C1.24609 42.2077 1.59224 41.3769 2.21532 40.8C2.86147 40.2 3.76148 39.9231 4.91532 39.9231C5.88455 39.9 6.83071 40.1769 7.6384 40.7077C8.39994 41.2154 8.76917 42.0462 8.76917 43.2H7.47686C7.45379 42.7385 7.29225 42.3 7.0384 41.9308C6.62302 41.4 5.90763 41.1231 4.89225 41.1231C4.08455 41.1231 3.48455 41.2846 3.1384 41.6308C2.79224 41.9308 2.60763 42.3692 2.60763 42.8308C2.58455 43.2923 2.81532 43.7308 3.23071 43.9385C3.50763 44.0769 4.13071 44.2615 5.09994 44.4923L6.53071 44.8154C7.10763 44.9308 7.6384 45.1385 8.12302 45.4615C8.76917 45.9462 9.09225 46.6385 9.09225 47.5385C9.09225 48.6692 8.67686 49.4769 7.84609 49.9615C6.96917 50.4692 5.97686 50.7231 4.98455 50.7C3.71532 50.7 2.72301 50.3769 2.00763 49.7308C1.29224 49.0846 0.923011 48.2077 0.946088 47.1H2.21532Z" fill="#EEA820"/>
<path d="M23.5378 41.6303C24.207 42.5303 24.5532 43.6842 24.5532 45.0918C24.5532 46.6149 24.1609 47.8842 23.3993 48.8995C22.4763 50.0995 21.1839 50.6995 19.4993 50.6995C17.9301 50.6995 16.6839 50.1688 15.7839 49.1303C14.9762 48.138 14.5839 46.8688 14.5839 45.3226C14.5378 44.0534 14.907 42.8303 15.6224 41.7688C16.4993 40.4995 17.8147 39.8765 19.5455 39.8765C21.3224 39.8995 22.6609 40.4765 23.5378 41.6303ZM22.3147 48.1611C22.8686 47.2611 23.1455 46.1995 23.1224 45.138C23.1224 43.938 22.7993 42.9688 22.1763 42.2303C21.5532 41.4918 20.6762 41.1226 19.5916 41.1226C18.5993 41.0995 17.6532 41.4918 17.007 42.2072C16.3378 42.9457 16.0147 44.0072 16.0147 45.4149C15.9916 46.4303 16.2916 47.4457 16.8686 48.2765C17.4455 49.0611 18.3686 49.4534 19.6609 49.4534C20.8839 49.4534 21.7609 49.038 22.3147 48.1611Z" fill="#EEA820"/>
<path d="M31.985 40.1772V46.5003C31.9619 47.1465 32.1004 47.7696 32.4004 48.3465C32.8158 49.0849 33.5081 49.4542 34.5004 49.4542C35.6773 49.4542 36.4619 49.0619 36.9004 48.2542C37.1543 47.7003 37.2696 47.1003 37.2466 46.5003V40.1772H38.6543V45.9234C38.6543 47.1926 38.4927 48.1619 38.1466 48.8311C37.5235 50.0542 36.3466 50.6772 34.6158 50.6772C32.885 50.6772 31.7081 50.0542 31.1081 48.8311C30.7619 48.1619 30.6004 47.1926 30.6004 45.9234V40.1772H31.985Z" fill="#EEA820"/>
<path d="M45.0233 40.1772H47.0079L49.9387 48.8311L52.8695 40.1772H54.831V50.4003H53.5156V44.3542C53.5156 44.1465 53.5156 43.8003 53.5387 43.3157C53.5618 42.8311 53.5618 42.3234 53.5618 41.7696L50.6541 50.4003H49.2695L46.3387 41.7696V42.0926C46.3387 42.3465 46.3387 42.7157 46.3618 43.2465C46.3849 43.7772 46.3849 44.1465 46.3849 44.3772V50.4234H45.0233V40.1772Z" fill="#EEA820"/>
<path d="M68.6538 40.1772V41.4003H65.2153V50.4003H63.8076V41.4003H60.3691V40.1772H68.6538Z" fill="#EEA820"/>
<path d="M74.3301 40.1772H81.7839V41.4234H75.6685V44.5388H81.3224V45.7157H75.6685V49.1772H81.8762V50.4003H74.3301V40.1772Z" fill="#EEA820"/>
<path d="M95.3082 40.9155C95.9774 41.5155 96.4159 42.3463 96.5082 43.2463H95.1466C95.0313 42.6463 94.6851 42.0925 94.2236 41.6771C93.762 41.2848 93.1159 41.1002 92.3082 41.1002C91.3851 41.0771 90.4851 41.4694 89.862 42.1617C89.2389 42.8771 88.9389 43.9617 88.9389 45.4155C88.9389 46.6155 89.2159 47.5848 89.7697 48.3232C90.3236 49.0617 91.1543 49.4309 92.2851 49.4309C93.2082 49.4771 94.1082 49.0386 94.6159 48.254C94.9389 47.7463 95.1466 47.2155 95.2389 46.6155H96.6005C96.5082 47.6309 96.0928 48.5771 95.4005 49.3155C94.5928 50.1925 93.4851 50.6309 92.1236 50.6309C91.0159 50.654 89.9543 50.2848 89.1236 49.5463C88.062 48.6002 87.5312 47.1232 87.5312 45.1386C87.5312 43.6386 87.9236 42.3925 88.7312 41.4232C89.5851 40.3848 90.7851 39.854 92.3082 39.854C93.6005 39.9002 94.5928 40.2463 95.3082 40.9155Z" fill="#EEA820"/>
<path d="M102.6 40.1772H104.007V44.4003H109.315V40.1772H110.723V50.4003H109.315V45.6234H104.007V50.4003H102.6V40.1772Z" fill="#EEA820"/>
<path d="M26.7238 20.9074V24.8305H10.6854C4.22382 24.8305 1.22382 21.6228 1.22382 15.7151V10.1074H5.1469V15.2998C5.1469 19.269 7.59305 20.9074 11.5161 20.9074H19.3161V-0.000244141H23.2161V20.9074H26.7238ZM16.0392 10.2921H9.25459V6.53052C9.25459 4.38437 10.5931 2.99975 12.7392 2.99975H14.9315V5.26129H12.97C12.2084 5.26129 11.7469 5.69975 11.7469 6.41514V7.26898H16.0392V10.2921Z" fill="white"/>
<path d="M40.2924 24.8305H26.1231V20.9074H30.9693V7.54591H34.8693V20.9305H40.3154L40.2924 24.8305ZM27.5308 2.23822C27.5308 0.922832 28.6154 -0.000244141 29.977 -0.000244141C31.3385 -0.000244141 32.4231 0.922832 32.4231 2.23822C32.4231 3.71514 31.2923 4.47668 29.977 4.47668C28.6616 4.47668 27.5308 3.71514 27.5308 2.23822ZM33.6462 2.23822C33.6462 0.922832 34.7077 -0.000244141 36.0923 -0.000244141C37.477 -0.000244141 38.5385 0.922832 38.5385 2.23822C38.5385 3.71514 37.4077 4.47668 36.0923 4.47668C34.777 4.47668 33.6462 3.71514 33.6462 2.23822Z" fill="white"/>
<path d="M59.4232 19.0158V19.0389C59.4232 24.5312 55.9616 28.2005 50.7924 28.2005H50.7693C47.7462 28.2005 45.3001 26.9543 43.8001 24.8312H39.6924V20.9081H42.2539C42.1616 20.2851 42.0924 19.662 42.0924 19.0389V19.0158C42.0924 13.3851 45.5539 9.62354 50.7462 9.62354H50.7693C55.9616 9.62354 59.4232 13.3851 59.4232 19.0158ZM55.5232 18.9235C55.5232 15.6697 53.6309 13.5466 50.7924 13.5466H50.7693C47.9309 13.5466 45.9924 15.6928 45.9924 18.9235V18.9466C45.9924 22.1543 47.9309 24.2774 50.7693 24.2774H50.7924C53.6309 24.2774 55.5462 22.1312 55.5462 18.9466L55.5232 18.9235Z" fill="white"/>
<path d="M110.793 7.33887V16.4542C110.793 22.2466 108.231 25.1081 102.762 25.1081C99.8311 25.1081 97.4311 23.8158 96.4619 21.6235C95.2619 23.6542 93.1158 24.8081 90.185 24.8081H80.0311V20.885H83.7927V9.62348H87.6927V20.9081H90.1619C92.4234 20.9081 94.7773 19.7773 94.7773 16.5696V9.62348H98.7004V17.1235C98.7004 19.6619 100.316 21.2312 102.762 21.2312C105.323 21.2312 106.87 19.7542 106.87 16.8927V7.33887H110.793Z" fill="white"/>
<path d="M78.1386 6.41504H73.8693V10.6843H78.1386V6.41504Z" fill="#EEA820"/>
<path d="M77.0307 20.9077V12.7615H73.1076V20.9077H71.3537C68.1922 20.9077 65.8614 19.1308 65.8614 16.2231V16.2C65.8614 13.2 68.1691 11.4231 71.3537 11.4231H71.7922V7.54614C65.9999 7.70768 62.1922 11.1 62.1922 16.2V16.2231C62.1922 21.3923 66.023 24.8308 71.6768 24.8308H73.1076C73.0614 26.1 72.5076 26.8384 71.6307 27.2538C70.9153 27.5538 70.1537 27.6692 69.3691 27.6461C67.6153 27.6231 65.8845 27.3461 64.223 26.8154L65.0307 30.9461C66.4845 31.3615 68.0076 31.5692 69.5307 31.5692C73.5922 31.5692 76.0384 30.3461 76.7768 26.6538C76.8922 26.0538 76.9845 25.4308 77.0076 24.8308H80.6538V20.9077H77.0307Z" fill="white"/>
</g>
<defs>
<clipPath id="clip0_0_1">
<rect width="1512" height="2506" fill="white" transform="translate(-1321 -20)"/>
</clipPath>
</defs>
</svg>
