<svg width="21" height="20" viewBox="0 0 21 20" fill="none" xmlns="http://www.w3.org/2000/svg">
<path d="M16.7801 19.1083C16.7051 19.1083 16.6301 19.1083 16.5468 19.1C13.8551 18.8083 11.2384 17.875 8.98009 16.4083C6.88009 15.075 5.06342 13.2583 3.73009 11.1583C2.26342 8.89165 1.33009 6.26665 1.04676 3.57498C1.01342 3.21665 1.05509 2.87498 1.16342 2.54165C1.27176 2.20831 1.45509 1.90831 1.68842 1.64998C1.92176 1.39165 2.20509 1.19165 2.52176 1.04998C2.84676 0.908313 3.18842 0.833313 3.53842 0.833313H6.03842C6.62176 0.833313 7.22176 1.04165 7.68842 1.44165C8.14676 1.83331 8.44676 2.38331 8.53009 2.98331C8.63009 3.72498 8.81343 4.45831 9.07176 5.14998C9.23843 5.59998 9.28009 6.08331 9.17176 6.54998C9.07176 7.01665 8.83842 7.44998 8.50509 7.78331L7.90509 8.38331C8.88842 9.91665 10.1884 11.225 11.7301 12.2083L12.3301 11.6083C12.6718 11.2666 13.1051 11.0333 13.5718 10.9416C14.0384 10.8416 14.5218 10.875 14.9718 11.0416C15.6634 11.3 16.3968 11.4833 17.1301 11.5833C17.7468 11.6666 18.2968 11.975 18.6968 12.4416C19.0884 12.9083 19.3051 13.5 19.2884 14.1083V16.6C19.2884 16.95 19.2218 17.2833 19.0801 17.6083C18.9384 17.925 18.7301 18.2166 18.4801 18.45C18.2218 18.6833 17.9218 18.8666 17.5884 18.975C17.3218 19.0666 17.0551 19.1083 16.7801 19.1083ZM6.05509 2.49998H6.04676H3.53842C3.42176 2.49998 3.31342 2.52498 3.20509 2.57498C3.09676 2.61665 2.99676 2.68331 2.92176 2.76665C2.83842 2.84998 2.78009 2.94998 2.74676 3.06665C2.71342 3.17498 2.69676 3.29165 2.70509 3.40831C2.96342 5.83331 3.80509 8.19998 5.13009 10.2583C6.33842 12.1583 7.98009 13.8 9.88009 15.0083C11.9301 16.3416 14.2968 17.175 16.7134 17.4416C16.8134 17.45 16.9301 17.4333 17.0384 17.4C17.1468 17.3666 17.2468 17.3 17.3384 17.225C17.4301 17.15 17.4968 17.05 17.5384 16.9416C17.5884 16.8333 17.6051 16.7166 17.6051 16.6V14.1C17.6051 14.0916 17.6051 14.0833 17.6051 14.0833C17.6134 13.875 17.5384 13.6833 17.4051 13.525C17.2718 13.3666 17.0884 13.2666 16.8884 13.2416C16.0384 13.1333 15.1884 12.9166 14.3718 12.6166C14.2218 12.5583 14.0551 12.55 13.9051 12.5833C13.7468 12.6166 13.6051 12.6916 13.4884 12.8083L12.4384 13.8666C12.1718 14.1333 11.7634 14.1833 11.4384 14C9.22176 12.7416 7.38842 10.9 6.12176 8.69165C5.94676 8.34165 5.99676 7.93331 6.26342 7.66665L7.32176 6.60831C7.43009 6.49998 7.50509 6.35831 7.53842 6.19998C7.57176 6.04165 7.56342 5.88331 7.50509 5.73331C7.19676 4.91665 6.98842 4.06665 6.87176 3.20831C6.84676 3.01665 6.74676 2.83331 6.59676 2.69998C6.44676 2.57498 6.25509 2.49998 6.05509 2.49998Z" fill="#757575"/>
</svg>
